<svg xmlns="http://www.w3.org/2000/svg" xmlns:xlink="http://www.w3.org/1999/xlink" width="500" zoomAndPan="magnify" viewBox="0 0 375 374.999991" height="500" preserveAspectRatio="xMidYMid meet" version="1.0"><defs><clipPath id="d0e240f761"><path d="M 6.578125 11.5625 L 361.75 11.5625 L 361.75 366.738281 L 6.578125 366.738281 Z M 6.578125 11.5625 " clip-rule="nonzero"/></clipPath></defs><path fill="#d9d9d9" d="M 169.632812 65.714844 C 168.476562 65.273438 167.28125 65.011719 166.046875 64.9375 C 164.8125 64.855469 163.597656 64.960938 162.398438 65.25 C 161.195312 65.539062 160.0625 66 159 66.632812 C 157.9375 67.265625 156.992188 68.042969 156.167969 68.957031 L 104.703125 126.117188 L 61.191406 126.117188 C 60.386719 126.117188 59.589844 126.195312 58.800781 126.355469 C 58.011719 126.507812 57.25 126.742188 56.503906 127.050781 C 55.765625 127.355469 55.058594 127.730469 54.390625 128.179688 C 53.722656 128.625 53.105469 129.132812 52.535156 129.699219 C 51.964844 130.269531 51.457031 130.886719 51.011719 131.558594 C 50.566406 132.226562 50.1875 132.929688 49.882812 133.671875 C 49.574219 134.414062 49.34375 135.179688 49.1875 135.96875 C 49.027344 136.757812 48.949219 137.554688 48.949219 138.355469 L 48.949219 242.394531 C 48.949219 243.195312 49.027344 243.988281 49.1875 244.78125 C 49.34375 245.566406 49.574219 246.332031 49.882812 247.074219 C 50.1875 247.816406 50.566406 248.523438 51.011719 249.191406 C 51.457031 249.859375 51.964844 250.476562 52.535156 251.046875 C 53.105469 251.617188 53.722656 252.121094 54.390625 252.566406 C 55.058594 253.011719 55.765625 253.390625 56.503906 253.699219 C 57.25 254.007812 58.011719 254.238281 58.800781 254.394531 C 59.589844 254.550781 60.386719 254.632812 61.191406 254.632812 L 105.066406 254.632812 L 156.53125 306.097656 C 157.386719 306.957031 158.347656 307.675781 159.417969 308.25 C 160.484375 308.828125 161.613281 309.234375 162.804688 309.476562 C 163.988281 309.71875 165.191406 309.777344 166.394531 309.660156 C 167.605469 309.542969 168.765625 309.257812 169.886719 308.792969 C 171.007812 308.332031 172.042969 307.714844 172.976562 306.945312 C 173.917969 306.179688 174.722656 305.292969 175.398438 304.28125 C 176.070312 303.273438 176.585938 302.191406 176.9375 301.027344 C 177.289062 299.867188 177.464844 298.679688 177.464844 297.464844 L 177.464844 77.160156 C 177.464844 75.921875 177.285156 74.710938 176.917969 73.53125 C 176.554688 72.34375 176.023438 71.242188 175.324219 70.222656 C 174.625 69.199219 173.792969 68.304688 172.820312 67.539062 C 171.847656 66.765625 170.785156 66.160156 169.632812 65.714844 Z M 152.984375 267.910156 L 118.773438 233.699219 C 117.628906 232.5625 116.308594 231.683594 114.8125 231.070312 C 113.316406 230.457031 111.761719 230.148438 110.148438 230.148438 L 73.429688 230.148438 L 73.429688 150.59375 L 110.148438 150.59375 C 111.886719 150.601562 113.546875 150.253906 115.136719 149.546875 C 116.726562 148.84375 118.097656 147.847656 119.265625 146.558594 L 152.984375 109.042969 L 152.984375 268.15625 Z M 152.984375 267.910156 " fill-opacity="1" fill-rule="nonzero"/><path fill="#d9d9d9" d="M 248.085938 101.636719 C 247.511719 101.070312 246.894531 100.5625 246.222656 100.117188 C 245.550781 99.671875 244.847656 99.300781 244.101562 98.992188 C 243.355469 98.6875 242.589844 98.457031 241.800781 98.304688 C 241.011719 98.148438 240.214844 98.074219 239.410156 98.074219 C 238.605469 98.078125 237.808594 98.15625 237.019531 98.320312 C 236.230469 98.476562 235.464844 98.710938 234.726562 99.019531 C 233.980469 99.332031 233.277344 99.710938 232.609375 100.160156 C 231.941406 100.609375 231.324219 101.121094 230.757812 101.691406 C 230.1875 102.265625 229.6875 102.882812 229.242188 103.554688 C 228.796875 104.226562 228.417969 104.929688 228.117188 105.675781 C 227.808594 106.421875 227.582031 107.1875 227.425781 107.976562 C 227.273438 108.769531 227.199219 109.5625 227.203125 110.371094 C 227.203125 111.175781 227.289062 111.96875 227.445312 112.761719 C 227.605469 113.546875 227.84375 114.3125 228.15625 115.054688 C 228.464844 115.796875 228.847656 116.503906 229.292969 117.171875 C 229.742188 117.835938 230.253906 118.453125 230.824219 119.019531 C 231.953125 120.136719 233.054688 121.28125 234.128906 122.453125 C 235.203125 123.628906 236.246094 124.828125 237.257812 126.050781 C 238.273438 127.273438 239.253906 128.523438 240.207031 129.796875 C 241.15625 131.066406 242.078125 132.363281 242.964844 133.679688 C 243.851562 135 244.707031 136.339844 245.527344 137.699219 C 246.351562 139.058594 247.136719 140.4375 247.890625 141.839844 C 248.644531 143.238281 249.363281 144.652344 250.046875 146.089844 C 250.730469 147.523438 251.378906 148.976562 251.988281 150.441406 C 252.601562 151.90625 253.175781 153.386719 253.714844 154.886719 C 254.253906 156.378906 254.753906 157.886719 255.21875 159.40625 C 255.683594 160.925781 256.109375 162.457031 256.496094 164 C 256.886719 165.539062 257.234375 167.089844 257.550781 168.648438 C 257.859375 170.207031 258.132812 171.773438 258.367188 173.339844 C 258.601562 174.914062 258.796875 176.488281 258.953125 178.074219 C 259.113281 179.65625 259.230469 181.234375 259.308594 182.824219 C 259.382812 184.414062 259.425781 186 259.425781 187.585938 C 259.425781 189.175781 259.382812 190.765625 259.308594 192.355469 C 259.230469 193.9375 259.113281 195.523438 258.953125 197.105469 C 258.796875 198.6875 258.601562 200.265625 258.367188 201.835938 C 258.132812 203.40625 257.859375 204.972656 257.550781 206.53125 C 257.234375 208.089844 256.886719 209.640625 256.496094 211.179688 C 256.109375 212.722656 255.683594 214.253906 255.21875 215.773438 C 254.753906 217.292969 254.253906 218.796875 253.714844 220.292969 C 253.175781 221.792969 252.601562 223.269531 251.988281 224.738281 C 251.378906 226.203125 250.730469 227.65625 250.046875 229.089844 C 249.363281 230.523438 248.644531 231.941406 247.890625 233.339844 C 247.136719 234.738281 246.351562 236.117188 245.527344 237.480469 C 244.707031 238.839844 243.851562 240.179688 242.964844 241.5 C 242.078125 242.816406 241.15625 244.113281 240.207031 245.382812 C 239.253906 246.65625 238.273438 247.902344 237.257812 249.128906 C 236.246094 250.351562 235.203125 251.550781 234.128906 252.722656 C 233.054688 253.894531 231.953125 255.042969 230.824219 256.160156 C 230.464844 256.421875 230.121094 256.699219 229.785156 256.996094 C 229.457031 257.296875 229.140625 257.609375 228.847656 257.945312 C 228.546875 258.273438 228.269531 258.625 228.007812 258.984375 C 227.75 259.34375 227.515625 259.722656 227.296875 260.113281 C 227.078125 260.5 226.878906 260.898438 226.703125 261.308594 C 226.53125 261.71875 226.378906 262.140625 226.25 262.566406 C 226.121094 262.992188 226.015625 263.425781 225.9375 263.863281 C 225.851562 264.300781 225.792969 264.742188 225.765625 265.1875 C 225.730469 265.628906 225.722656 266.074219 225.738281 266.519531 C 225.753906 266.964844 225.789062 267.40625 225.851562 267.847656 C 225.917969 268.289062 226.003906 268.722656 226.117188 269.160156 C 226.226562 269.589844 226.363281 270.015625 226.519531 270.429688 C 226.675781 270.847656 226.859375 271.253906 227.058594 271.648438 C 227.261719 272.046875 227.484375 272.433594 227.730469 272.804688 C 227.96875 273.175781 228.234375 273.539062 228.519531 273.878906 C 228.804688 274.222656 229.101562 274.550781 229.421875 274.863281 C 229.738281 275.175781 230.078125 275.46875 230.425781 275.742188 C 230.78125 276.015625 231.144531 276.269531 231.519531 276.503906 C 231.902344 276.742188 232.292969 276.953125 232.695312 277.144531 C 233.09375 277.335938 233.507812 277.503906 233.925781 277.65625 C 234.347656 277.800781 234.773438 277.925781 235.207031 278.023438 C 235.644531 278.128906 236.085938 278.199219 236.523438 278.253906 C 236.964844 278.308594 237.410156 278.335938 237.855469 278.339844 C 238.300781 278.34375 238.746094 278.324219 239.1875 278.277344 C 239.632812 278.234375 240.074219 278.164062 240.507812 278.074219 C 240.945312 277.980469 241.375 277.867188 241.796875 277.722656 C 242.222656 277.585938 242.636719 277.425781 243.042969 277.242188 C 243.445312 277.054688 243.839844 276.847656 244.222656 276.617188 C 244.609375 276.394531 244.976562 276.144531 245.332031 275.875 C 245.6875 275.609375 246.027344 275.320312 246.355469 275.015625 C 246.675781 274.710938 246.984375 274.390625 247.273438 274.050781 C 247.5625 273.710938 247.832031 273.355469 248.085938 272.988281 C 249.488281 271.585938 250.859375 270.15625 252.191406 268.6875 C 253.527344 267.21875 254.824219 265.71875 256.082031 264.1875 C 257.347656 262.652344 258.566406 261.09375 259.753906 259.503906 C 260.933594 257.910156 262.078125 256.289062 263.183594 254.640625 C 264.285156 252.992188 265.347656 251.320312 266.367188 249.621094 C 267.394531 247.914062 268.371094 246.191406 269.308594 244.445312 C 270.246094 242.695312 271.140625 240.925781 271.988281 239.128906 C 272.835938 237.339844 273.640625 235.527344 274.402344 233.695312 C 275.160156 231.863281 275.878906 230.011719 276.546875 228.148438 C 277.21875 226.277344 277.839844 224.398438 278.414062 222.496094 C 278.996094 220.601562 279.523438 218.691406 280.003906 216.761719 C 280.488281 214.839844 280.925781 212.90625 281.3125 210.960938 C 281.699219 209.015625 282.039062 207.0625 282.332031 205.101562 C 282.621094 203.140625 282.867188 201.171875 283.058594 199.195312 C 283.253906 197.222656 283.402344 195.246094 283.5 193.261719 C 283.597656 191.28125 283.648438 189.300781 283.648438 187.316406 C 283.648438 185.332031 283.597656 183.347656 283.5 181.367188 C 283.402344 179.386719 283.253906 177.40625 283.058594 175.433594 C 282.867188 173.460938 282.621094 171.492188 282.332031 169.53125 C 282.039062 167.566406 281.699219 165.613281 281.3125 163.667969 C 280.925781 161.71875 280.488281 159.785156 280.003906 157.863281 C 279.523438 155.941406 278.996094 154.027344 278.414062 152.128906 C 277.839844 150.234375 277.21875 148.347656 276.546875 146.480469 C 275.878906 144.613281 275.160156 142.765625 274.402344 140.933594 C 273.640625 139.101562 272.835938 137.289062 271.988281 135.496094 C 271.140625 133.703125 270.246094 131.929688 269.308594 130.183594 C 268.371094 128.433594 267.394531 126.710938 266.367188 125.011719 C 265.347656 123.3125 264.285156 121.632812 263.183594 119.988281 C 262.078125 118.339844 260.933594 116.71875 259.753906 115.128906 C 258.566406 113.535156 257.347656 111.972656 256.082031 110.441406 C 254.824219 108.910156 253.527344 107.410156 252.191406 105.941406 C 250.859375 104.472656 249.488281 103.039062 248.085938 101.636719 Z M 248.085938 101.636719 " fill-opacity="1" fill-rule="nonzero"/><path fill="#d9d9d9" d="M 281.007812 68.714844 C 280.449219 68.101562 279.835938 67.550781 279.167969 67.0625 C 278.496094 66.570312 277.785156 66.15625 277.03125 65.8125 C 276.277344 65.46875 275.496094 65.207031 274.6875 65.019531 C 273.878906 64.832031 273.0625 64.734375 272.234375 64.714844 C 271.402344 64.695312 270.582031 64.761719 269.765625 64.90625 C 268.953125 65.054688 268.15625 65.28125 267.390625 65.59375 C 266.617188 65.902344 265.890625 66.285156 265.199219 66.742188 C 264.507812 67.199219 263.867188 67.722656 263.28125 68.308594 C 262.699219 68.898438 262.179688 69.539062 261.722656 70.230469 C 261.269531 70.921875 260.886719 71.652344 260.582031 72.425781 C 260.273438 73.195312 260.046875 73.988281 259.902344 74.804688 C 259.757812 75.621094 259.695312 76.441406 259.71875 77.269531 C 259.742188 78.101562 259.84375 78.917969 260.03125 79.726562 C 260.21875 80.535156 260.488281 81.3125 260.835938 82.066406 C 261.179688 82.820312 261.601562 83.53125 262.089844 84.199219 C 262.582031 84.867188 263.136719 85.476562 263.75 86.035156 C 265.417969 87.683594 267.042969 89.375 268.625 91.105469 C 270.210938 92.839844 271.75 94.609375 273.246094 96.417969 C 274.738281 98.226562 276.191406 100.070312 277.59375 101.949219 C 279 103.824219 280.359375 105.742188 281.671875 107.6875 C 282.980469 109.632812 284.242188 111.609375 285.453125 113.621094 C 286.667969 115.628906 287.832031 117.664062 288.9375 119.730469 C 290.050781 121.796875 291.113281 123.890625 292.121094 126.007812 C 293.128906 128.128906 294.085938 130.269531 294.988281 132.433594 C 295.894531 134.601562 296.742188 136.785156 297.535156 138.992188 C 298.332031 141.203125 299.070312 143.429688 299.757812 145.671875 C 300.441406 147.914062 301.070312 150.175781 301.644531 152.453125 C 302.21875 154.726562 302.734375 157.015625 303.191406 159.3125 C 303.652344 161.617188 304.0625 163.925781 304.40625 166.25 C 304.75 168.566406 305.039062 170.898438 305.273438 173.230469 C 305.503906 175.566406 305.675781 177.90625 305.792969 180.25 C 305.90625 182.589844 305.964844 184.9375 305.964844 187.285156 C 305.964844 189.628906 305.90625 191.972656 305.792969 194.320312 C 305.675781 196.660156 305.503906 199 305.273438 201.335938 C 305.039062 203.671875 304.75 206 304.40625 208.320312 C 304.0625 210.640625 303.652344 212.953125 303.191406 215.25 C 302.734375 217.554688 302.21875 219.839844 301.644531 222.117188 C 301.070312 224.390625 300.441406 226.648438 299.757812 228.894531 C 299.070312 231.140625 298.332031 233.367188 297.535156 235.574219 C 296.742188 237.78125 295.894531 239.96875 294.988281 242.132812 C 294.085938 244.296875 293.128906 246.441406 292.121094 248.558594 C 291.113281 250.679688 290.050781 252.769531 288.9375 254.835938 C 287.832031 256.898438 286.667969 258.9375 285.453125 260.949219 C 284.242188 262.957031 282.980469 264.933594 281.671875 266.882812 C 280.359375 268.828125 279 270.738281 277.59375 272.621094 C 276.191406 274.496094 274.738281 276.34375 273.246094 278.152344 C 271.75 279.957031 270.210938 281.726562 268.625 283.457031 C 267.042969 285.1875 265.417969 286.882812 263.75 288.53125 C 263.179688 289.101562 262.667969 289.71875 262.21875 290.386719 C 261.769531 291.050781 261.390625 291.753906 261.082031 292.496094 C 260.773438 293.238281 260.535156 294.003906 260.378906 294.792969 C 260.214844 295.578125 260.136719 296.375 260.132812 297.179688 C 260.132812 297.984375 260.207031 298.777344 260.359375 299.570312 C 260.515625 300.359375 260.742188 301.125 261.050781 301.867188 C 261.351562 302.613281 261.730469 303.320312 262.175781 303.992188 C 262.621094 304.664062 263.121094 305.28125 263.691406 305.851562 C 264.257812 306.425781 264.871094 306.929688 265.539062 307.378906 C 266.207031 307.828125 266.910156 308.207031 267.65625 308.519531 C 268.394531 308.832031 269.160156 309.066406 269.949219 309.226562 C 270.734375 309.386719 271.53125 309.46875 272.335938 309.46875 C 273.140625 309.472656 273.9375 309.398438 274.726562 309.242188 C 275.515625 309.085938 276.28125 308.855469 277.027344 308.554688 C 277.769531 308.246094 278.476562 307.875 279.148438 307.429688 C 279.816406 306.984375 280.4375 306.480469 281.007812 305.914062 C 282.960938 303.980469 284.863281 301.996094 286.71875 299.96875 C 288.570312 297.9375 290.371094 295.867188 292.125 293.746094 C 293.875 291.628906 295.574219 289.472656 297.21875 287.269531 C 298.863281 285.066406 300.453125 282.824219 301.988281 280.546875 C 303.519531 278.265625 304.996094 275.953125 306.417969 273.59375 C 307.835938 271.242188 309.199219 268.859375 310.5 266.4375 C 311.800781 264.015625 313.046875 261.566406 314.226562 259.082031 C 315.40625 256.605469 316.527344 254.09375 317.582031 251.558594 C 318.640625 249.019531 319.636719 246.457031 320.5625 243.875 C 321.496094 241.289062 322.359375 238.679688 323.160156 236.050781 C 323.964844 233.421875 324.699219 230.777344 325.371094 228.113281 C 326.042969 225.445312 326.652344 222.765625 327.1875 220.070312 C 327.730469 217.378906 328.199219 214.671875 328.609375 211.949219 C 329.011719 209.234375 329.347656 206.507812 329.621094 203.773438 C 329.890625 201.039062 330.09375 198.300781 330.230469 195.554688 C 330.367188 192.808594 330.433594 190.0625 330.433594 187.316406 C 330.433594 184.566406 330.367188 181.820312 330.230469 179.074219 C 330.09375 176.332031 329.890625 173.589844 329.621094 170.855469 C 329.347656 168.121094 329.011719 165.394531 328.609375 162.675781 C 328.199219 159.957031 327.730469 157.25 327.1875 154.554688 C 326.652344 151.859375 326.042969 149.183594 325.371094 146.519531 C 324.699219 143.851562 323.964844 141.203125 323.160156 138.578125 C 322.359375 135.949219 321.496094 133.339844 320.5625 130.757812 C 319.636719 128.167969 318.640625 125.605469 317.582031 123.074219 C 316.527344 120.535156 315.40625 118.027344 314.226562 115.542969 C 313.046875 113.0625 311.800781 110.609375 310.5 108.191406 C 309.199219 105.773438 307.835938 103.382812 306.417969 101.03125 C 304.996094 98.679688 303.519531 96.359375 301.988281 94.082031 C 300.453125 91.800781 298.863281 89.558594 297.21875 87.355469 C 295.574219 85.160156 293.875 82.996094 292.125 80.878906 C 290.371094 78.761719 288.570312 76.6875 286.71875 74.660156 C 284.863281 72.632812 282.960938 70.652344 281.007812 68.714844 Z M 281.007812 68.714844 " fill-opacity="1" fill-rule="nonzero"/><path fill="#d9d9d9" d="M 213.570312 135.664062 C 213 135.097656 212.378906 134.589844 211.710938 134.148438 C 211.039062 133.703125 210.332031 133.328125 209.585938 133.023438 C 208.84375 132.71875 208.074219 132.488281 207.289062 132.332031 C 206.496094 132.179688 205.703125 132.101562 204.898438 132.105469 C 204.09375 132.109375 203.296875 132.191406 202.511719 132.351562 C 201.71875 132.511719 200.957031 132.746094 200.214844 133.054688 C 199.472656 133.367188 198.769531 133.746094 198.101562 134.195312 C 197.433594 134.644531 196.820312 135.15625 196.25 135.726562 C 195.683594 136.292969 195.179688 136.917969 194.734375 137.585938 C 194.289062 138.253906 193.917969 138.960938 193.609375 139.707031 C 193.308594 140.449219 193.078125 141.21875 192.921875 142.007812 C 192.765625 142.796875 192.691406 143.59375 192.691406 144.394531 C 192.695312 145.203125 192.777344 145.996094 192.9375 146.789062 C 193.101562 147.574219 193.332031 148.335938 193.644531 149.082031 C 193.957031 149.824219 194.332031 150.523438 194.78125 151.191406 C 195.230469 151.859375 195.738281 152.480469 196.3125 153.042969 C 197.441406 154.164062 198.515625 155.335938 199.527344 156.5625 C 200.542969 157.785156 201.492188 159.0625 202.382812 160.382812 C 203.269531 161.699219 204.089844 163.058594 204.847656 164.460938 C 205.601562 165.863281 206.28125 167.296875 206.894531 168.761719 C 207.507812 170.234375 208.042969 171.726562 208.507812 173.25 C 208.972656 174.769531 209.359375 176.308594 209.675781 177.871094 C 209.988281 179.429688 210.21875 181 210.378906 182.582031 C 210.535156 184.167969 210.613281 185.753906 210.613281 187.347656 C 210.613281 188.933594 210.535156 190.523438 210.378906 192.105469 C 210.21875 193.691406 209.988281 195.257812 209.675781 196.816406 C 209.359375 198.378906 208.972656 199.917969 208.507812 201.441406 C 208.042969 202.960938 207.507812 204.460938 206.894531 205.925781 C 206.28125 207.394531 205.601562 208.832031 204.847656 210.230469 C 204.089844 211.632812 203.269531 212.992188 202.382812 214.3125 C 201.492188 215.632812 200.542969 216.902344 199.527344 218.125 C 198.515625 219.355469 197.441406 220.523438 196.3125 221.644531 C 195.738281 222.214844 195.230469 222.828125 194.78125 223.496094 C 194.332031 224.164062 193.953125 224.867188 193.640625 225.609375 C 193.328125 226.351562 193.097656 227.113281 192.933594 227.90625 C 192.773438 228.691406 192.691406 229.488281 192.6875 230.292969 C 192.6875 231.097656 192.761719 231.894531 192.914062 232.683594 C 193.070312 233.472656 193.300781 234.242188 193.605469 234.984375 C 193.910156 235.730469 194.285156 236.4375 194.730469 237.109375 C 195.175781 237.777344 195.679688 238.398438 196.246094 238.96875 C 196.816406 239.539062 197.429688 240.046875 198.097656 240.496094 C 198.765625 240.945312 199.46875 241.324219 200.210938 241.636719 C 200.953125 241.949219 201.71875 242.183594 202.507812 242.34375 C 203.296875 242.5 204.089844 242.585938 204.898438 242.585938 C 205.699219 242.589844 206.496094 242.511719 207.289062 242.359375 C 208.074219 242.203125 208.84375 241.972656 209.585938 241.667969 C 210.332031 241.363281 211.039062 240.988281 211.710938 240.542969 C 212.378906 240.097656 213 239.589844 213.570312 239.027344 C 214.417969 238.183594 215.25 237.320312 216.058594 236.4375 C 216.863281 235.550781 217.652344 234.648438 218.414062 233.722656 C 219.179688 232.800781 219.917969 231.863281 220.636719 230.902344 C 221.351562 229.941406 222.046875 228.964844 222.710938 227.972656 C 223.378906 226.980469 224.023438 225.96875 224.644531 224.941406 C 225.265625 223.917969 225.855469 222.878906 226.425781 221.824219 C 226.992188 220.769531 227.53125 219.703125 228.046875 218.621094 C 228.5625 217.539062 229.050781 216.445312 229.507812 215.339844 C 229.96875 214.234375 230.402344 213.117188 230.8125 211.992188 C 231.21875 210.863281 231.59375 209.730469 231.941406 208.585938 C 232.292969 207.4375 232.613281 206.285156 232.90625 205.125 C 233.199219 203.960938 233.460938 202.792969 233.695312 201.617188 C 233.929688 200.445312 234.136719 199.265625 234.316406 198.082031 C 234.492188 196.898438 234.640625 195.707031 234.757812 194.519531 C 234.875 193.324219 234.964844 192.132812 235.023438 190.933594 C 235.082031 189.742188 235.113281 188.542969 235.113281 187.347656 C 235.113281 186.148438 235.082031 184.949219 235.023438 183.753906 C 234.964844 182.554688 234.875 181.363281 234.757812 180.171875 C 234.640625 178.980469 234.492188 177.792969 234.316406 176.609375 C 234.136719 175.421875 233.929688 174.242188 233.695312 173.070312 C 233.460938 171.894531 233.199219 170.726562 232.90625 169.566406 C 232.613281 168.40625 232.292969 167.25 231.941406 166.105469 C 231.59375 164.960938 231.21875 163.824219 230.8125 162.699219 C 230.402344 161.570312 229.96875 160.453125 229.507812 159.347656 C 229.050781 158.242188 228.5625 157.148438 228.046875 156.070312 C 227.53125 154.988281 226.992188 153.917969 226.425781 152.867188 C 225.855469 151.8125 225.265625 150.769531 224.644531 149.746094 C 224.023438 148.722656 223.378906 147.710938 222.710938 146.71875 C 222.046875 145.722656 221.351562 144.746094 220.636719 143.785156 C 219.917969 142.832031 219.179688 141.886719 218.414062 140.964844 C 217.652344 140.039062 216.863281 139.136719 216.058594 138.253906 C 215.25 137.367188 214.417969 136.503906 213.570312 135.664062 Z M 213.570312 135.664062 " fill-opacity="1" fill-rule="nonzero"/><g clip-path="url(#d0e240f761)"><path fill="#d9d9d9" d="M 184.21875 11.5625 C 86.085938 11.5625 6.578125 91.140625 6.578125 189.199219 C 6.578125 287.261719 86.085938 366.839844 184.21875 366.839844 C 282.351562 366.839844 361.855469 287.261719 361.855469 189.199219 C 361.855469 91.140625 282.351562 11.5625 184.21875 11.5625 Z M 184.21875 355.59375 C 92.320312 355.59375 17.824219 281.101562 17.824219 189.199219 C 17.824219 97.300781 92.320312 22.808594 184.21875 22.808594 C 276.117188 22.808594 350.609375 97.300781 350.609375 189.199219 C 350.609375 281.101562 276.117188 355.59375 184.21875 355.59375 Z M 184.21875 355.59375 " fill-opacity="1" fill-rule="nonzero"/></g><path stroke-linecap="butt" transform="matrix(0.552149, -0.507574, 0.507574, 0.552149, 63.826488, 303.864707)" fill="none" stroke-linejoin="miter" d="M -0.00167877 5.499937 L 437.855861 5.498275 " stroke="#a6a6a6" stroke-width="11" stroke-opacity="1" stroke-miterlimit="4"/></svg>