<svg xmlns="http://www.w3.org/2000/svg" xmlns:xlink="http://www.w3.org/1999/xlink" width="500" zoomAndPan="magnify" viewBox="0 0 375 374.999991" height="500" preserveAspectRatio="xMidYMid meet" version="1.0"><path fill="#004aad" d="M 111.414062 263.574219 C 113.628906 265.789062 116.53125 266.898438 119.4375 266.898438 C 122.339844 266.898438 125.242188 265.789062 127.457031 263.574219 L 187.496094 203.535156 L 247.535156 263.574219 C 249.75 265.789062 252.652344 266.898438 255.554688 266.898438 C 258.460938 266.898438 261.363281 265.789062 263.574219 263.574219 C 268.011719 259.140625 268.011719 251.972656 263.574219 247.535156 L 203.535156 187.496094 L 263.574219 127.457031 C 268.011719 123.019531 268.011719 115.851562 263.574219 111.414062 C 259.140625 106.980469 251.972656 106.980469 247.535156 111.414062 L 187.496094 171.457031 L 127.457031 111.414062 C 123.019531 106.980469 115.851562 106.980469 111.414062 111.414062 C 106.980469 115.851562 106.980469 123.019531 111.414062 127.457031 L 171.457031 187.496094 L 111.414062 247.535156 C 106.980469 251.972656 106.980469 259.140625 111.414062 263.574219 Z M 111.414062 263.574219 " fill-opacity="1" fill-rule="nonzero"/></svg>