<svg xmlns="http://www.w3.org/2000/svg" xmlns:xlink="http://www.w3.org/1999/xlink" width="500" zoomAndPan="magnify" viewBox="0 0 375 374.999991" height="500" preserveAspectRatio="xMidYMid meet" version="1.0"><path fill="#d9d9d9" d="M 107.253906 271.660156 C 109.585938 273.992188 112.652344 275.167969 115.714844 275.167969 C 118.777344 275.167969 121.839844 273.992188 124.171875 271.660156 L 187.496094 208.335938 L 250.820312 271.660156 C 253.152344 273.992188 256.214844 275.167969 259.277344 275.167969 C 262.339844 275.167969 265.402344 273.992188 267.738281 271.660156 C 272.414062 266.984375 272.414062 259.421875 267.738281 254.742188 L 204.414062 191.417969 L 267.738281 128.097656 C 272.414062 123.417969 272.414062 115.855469 267.738281 111.179688 C 263.058594 106.5 255.496094 106.5 250.820312 111.179688 L 187.496094 174.503906 L 124.171875 111.179688 C 119.492188 106.5 111.933594 106.5 107.253906 111.179688 C 102.578125 115.855469 102.578125 123.417969 107.253906 128.097656 L 170.578125 191.417969 L 107.253906 254.742188 C 102.578125 259.421875 102.578125 266.984375 107.253906 271.660156 Z M 107.253906 271.660156 " fill-opacity="1" fill-rule="nonzero"/></svg>