<svg xmlns="http://www.w3.org/2000/svg" xmlns:xlink="http://www.w3.org/1999/xlink" width="500" zoomAndPan="magnify" viewBox="0 0 375 374.999991" height="500" preserveAspectRatio="xMidYMid meet" version="1.0"><path fill="#004aad" d="M 156.070312 206.265625 C 156.804688 207 157.765625 207.367188 158.730469 207.367188 C 159.691406 207.367188 160.65625 207 161.386719 206.265625 L 181.292969 186.363281 L 201.199219 206.265625 C 201.929688 207 202.894531 207.367188 203.855469 207.367188 C 204.820312 207.367188 205.78125 207 206.515625 206.265625 C 207.984375 204.796875 207.984375 202.421875 206.515625 200.949219 L 186.609375 181.042969 L 206.515625 161.140625 C 207.984375 159.667969 207.984375 157.292969 206.515625 155.820312 C 205.042969 154.351562 202.667969 154.351562 201.199219 155.820312 L 181.292969 175.726562 L 161.386719 155.820312 C 159.917969 154.351562 157.539062 154.351562 156.070312 155.820312 C 154.601562 157.292969 154.601562 159.667969 156.070312 161.140625 L 175.976562 181.042969 L 156.070312 200.949219 C 154.601562 202.421875 154.601562 204.796875 156.070312 206.265625 Z M 156.070312 206.265625 " fill-opacity="1" fill-rule="nonzero"/></svg>