<svg xmlns="http://www.w3.org/2000/svg" xmlns:xlink="http://www.w3.org/1999/xlink" width="500" zoomAndPan="magnify" viewBox="0 0 375 374.999991" height="500" preserveAspectRatio="xMidYMid meet" version="1.0"><path fill="#ffdfbf" d="M 258.351562 175.320312 C 258.351562 109.847656 236.132812 63.523438 178.542969 64.273438 C 97.988281 65.328125 98.742188 109.847656 98.742188 175.320312 C 98.742188 180.417969 90.449219 179.09375 91.210938 194.152344 C 93.46875 213.28125 100.546875 208.609375 101.472656 213.773438 C 110.628906 264.332031 141.664062 301.445312 178.542969 301.445312 C 215.882812 301.445312 247.226562 263.347656 255.933594 211.886719 C 256.753906 207.09375 261.742188 211.09375 262.289062 193.417969 C 263.613281 177.207031 258.351562 180.171875 258.351562 175.320312 Z M 258.351562 175.320312 " fill-opacity="1" fill-rule="evenodd"/><path fill="#474747" d="M 178.542969 64.273438 C 226.023438 63.660156 249.457031 95.035156 256.222656 142.773438 C 247.546875 119.203125 228.6875 117.097656 192.628906 116.527344 C 122.789062 115.417969 105.175781 124.726562 113.882812 211.984375 C 115.714844 230.375 119.921875 236.320312 141.921875 251.269531 C 153.847656 259.386719 123.585938 225.195312 191.109375 224.613281 C 240.042969 224.1875 220.832031 260.601562 230.738281 253.714844 C 238.652344 248.082031 245.335938 241.25 250.792969 233.21875 C 238.046875 273.515625 210.484375 301.425781 178.542969 301.425781 C 141.648438 301.425781 110.628906 264.261719 101.472656 213.761719 L 98.742188 175.308594 C 98.742188 109.847656 97.988281 65.328125 178.542969 64.273438 Z M 178.542969 64.273438 " fill-opacity="1" fill-rule="evenodd"/><path fill="#000000" d="M 179.921875 64.273438 L 178.554688 64.273438 C 98.007812 65.328125 98.753906 109.847656 98.753906 175.320312 C 98.753906 180.417969 90.460938 179.09375 91.226562 194.152344 C 93.480469 213.28125 100.558594 208.609375 101.488281 213.773438 C 110.644531 264.332031 141.675781 301.445312 178.554688 301.445312 C 215.898438 301.445312 247.246094 263.347656 255.945312 211.886719 C 256.765625 207.09375 261.753906 211.09375 262.300781 193.417969 C 263.667969 177.207031 258.367188 180.171875 258.367188 175.320312 C 258.367188 110.367188 236.503906 64.273438 179.933594 64.273438 M 179.933594 54.707031 C 210.308594 54.707031 233.363281 66.679688 248.417969 90.234375 C 261.152344 110.1875 267.710938 138.195312 267.917969 173.585938 C 271.046875 177.683594 272.726562 182.976562 271.851562 193.960938 C 271.441406 206.148438 268.96875 211.410156 265.019531 215.222656 C 254.894531 271.722656 219.492188 311.023438 178.5 311.023438 C 158.003906 311.023438 138.082031 301.003906 122.339844 282.816406 C 108.023438 266.28125 97.472656 243.316406 92.484375 217.925781 C 85.144531 212.789062 82.824219 205.125 81.660156 195.285156 L 81.660156 194.644531 C 81.078125 182.851562 84.84375 177.183594 89.1875 173.015625 C 89.1875 140.222656 89.1875 111.785156 100.246094 90.699219 C 112.761719 66.691406 137.601562 55.257812 178.429688 54.726562 Z M 179.933594 54.707031 " fill-opacity="1" fill-rule="nonzero"/><path fill="#474747" d="M 207.425781 214.007812 C 207.425781 214.007812 203.1875 218.242188 194.71875 217.914062 C 186.246094 217.585938 182.355469 212.710938 182.355469 212.710938 C 182.355469 212.710938 185.933594 220.90625 193.75 221.492188 C 201.566406 222.082031 207.425781 214.007812 207.425781 214.007812 Z M 207.425781 214.007812 " fill-opacity="1" fill-rule="evenodd"/><path fill="#ffffff" d="M 196.863281 172.65625 C 196.863281 173.824219 196.90625 174.988281 196.996094 176.144531 C 197.085938 177.304688 197.222656 178.453125 197.398438 179.597656 C 197.578125 180.742188 197.796875 181.871094 198.0625 182.984375 C 198.324219 184.097656 198.632812 185.191406 198.984375 186.269531 C 199.332031 187.34375 199.722656 188.398438 200.152344 189.425781 C 200.582031 190.453125 201.050781 191.449219 201.554688 192.417969 C 202.058594 193.386719 202.605469 194.324219 203.179688 195.222656 C 203.761719 196.125 204.371094 196.988281 205.015625 197.808594 C 205.660156 198.632812 206.335938 199.414062 207.039062 200.152344 C 207.742188 200.894531 208.472656 201.585938 209.234375 202.234375 C 209.992188 202.878906 210.773438 203.476562 211.578125 204.023438 C 212.378906 204.574219 213.207031 205.074219 214.046875 205.519531 C 214.890625 205.964844 215.746094 206.359375 216.617188 206.695312 C 217.488281 207.03125 218.375 207.316406 219.269531 207.542969 C 220.160156 207.773438 221.058594 207.941406 221.972656 208.054688 C 222.878906 208.167969 223.785156 208.226562 224.699219 208.226562 C 225.609375 208.226562 226.515625 208.167969 227.421875 208.054688 C 228.335938 207.941406 229.234375 207.773438 230.125 207.542969 C 231.019531 207.316406 231.90625 207.03125 232.777344 206.695312 C 233.648438 206.359375 234.503906 205.964844 235.347656 205.519531 C 236.1875 205.074219 237.015625 204.574219 237.816406 204.023438 C 238.621094 203.476562 239.402344 202.878906 240.160156 202.234375 C 240.921875 201.585938 241.652344 200.894531 242.355469 200.152344 C 243.058594 199.414062 243.734375 198.632812 244.378906 197.808594 C 245.023438 196.988281 245.632812 196.125 246.214844 195.222656 C 246.789062 194.324219 247.335938 193.386719 247.84375 192.417969 C 248.34375 191.449219 248.8125 190.453125 249.242188 189.425781 C 249.671875 188.398438 250.0625 187.34375 250.410156 186.269531 C 250.761719 185.191406 251.070312 184.097656 251.332031 182.984375 C 251.597656 181.871094 251.816406 180.742188 251.996094 179.597656 C 252.171875 178.453125 252.308594 177.304688 252.398438 176.144531 C 252.488281 174.988281 252.53125 173.824219 252.53125 172.65625 C 252.53125 171.492188 252.488281 170.332031 252.398438 169.171875 C 252.308594 168.011719 252.171875 166.863281 251.996094 165.71875 C 251.816406 164.574219 251.597656 163.449219 251.332031 162.332031 C 251.070312 161.21875 250.761719 160.125 250.410156 159.046875 C 250.0625 157.972656 249.671875 156.917969 249.242188 155.890625 C 248.8125 154.863281 248.34375 153.867188 247.84375 152.898438 C 247.335938 151.929688 246.789062 150.992188 246.214844 150.09375 C 245.632812 149.191406 245.023438 148.332031 244.378906 147.507812 C 243.734375 146.683594 243.058594 145.902344 242.355469 145.167969 C 241.652344 144.425781 240.921875 143.730469 240.160156 143.085938 C 239.402344 142.4375 238.621094 141.839844 237.816406 141.289062 C 237.015625 140.742188 236.1875 140.242188 235.347656 139.800781 C 234.503906 139.351562 233.648438 138.960938 232.777344 138.621094 C 231.90625 138.28125 231.019531 138.003906 230.125 137.777344 C 229.234375 137.546875 228.335938 137.375 227.421875 137.261719 C 226.515625 137.148438 225.609375 137.09375 224.699219 137.09375 C 223.785156 137.09375 222.878906 137.148438 221.972656 137.261719 C 221.058594 137.375 220.160156 137.546875 219.269531 137.777344 C 218.375 138.003906 217.488281 138.28125 216.617188 138.621094 C 215.746094 138.960938 214.890625 139.351562 214.046875 139.800781 C 213.207031 140.242188 212.378906 140.742188 211.578125 141.289062 C 210.773438 141.839844 209.992188 142.4375 209.234375 143.085938 C 208.472656 143.730469 207.742188 144.425781 207.039062 145.167969 C 206.335938 145.902344 205.660156 146.683594 205.015625 147.507812 C 204.371094 148.332031 203.761719 149.191406 203.179688 150.09375 C 202.605469 150.992188 202.058594 151.929688 201.554688 152.898438 C 201.050781 153.867188 200.582031 154.863281 200.152344 155.890625 C 199.722656 156.917969 199.332031 157.972656 198.984375 159.046875 C 198.632812 160.125 198.324219 161.21875 198.0625 162.332031 C 197.796875 163.449219 197.578125 164.574219 197.398438 165.71875 C 197.222656 166.863281 197.085938 168.011719 196.996094 169.171875 C 196.90625 170.332031 196.863281 171.492188 196.863281 172.65625 Z M 196.863281 172.65625 " fill-opacity="1" fill-rule="nonzero"/><path fill="#ffffff" d="M 137.25 172.65625 C 137.25 173.824219 137.292969 174.988281 137.382812 176.144531 C 137.472656 177.304688 137.605469 178.453125 137.78125 179.597656 C 137.957031 180.742188 138.183594 181.871094 138.445312 182.984375 C 138.710938 184.097656 139.015625 185.191406 139.367188 186.269531 C 139.714844 187.34375 140.101562 188.398438 140.53125 189.425781 C 140.960938 190.453125 141.429688 191.449219 141.9375 192.417969 C 142.445312 193.386719 142.984375 194.324219 143.566406 195.222656 C 144.140625 196.125 144.757812 196.988281 145.402344 197.808594 C 146.046875 198.632812 146.71875 199.414062 147.425781 200.152344 C 148.128906 200.894531 148.859375 201.585938 149.617188 202.234375 C 150.375 202.878906 151.160156 203.476562 151.960938 204.023438 C 152.765625 204.574219 153.585938 205.074219 154.429688 205.519531 C 155.269531 205.964844 156.128906 206.359375 157.003906 206.695312 C 157.875 207.03125 158.753906 207.316406 159.648438 207.542969 C 160.546875 207.773438 161.445312 207.941406 162.351562 208.054688 C 163.257812 208.167969 164.167969 208.226562 165.082031 208.226562 C 165.992188 208.226562 166.902344 208.167969 167.808594 208.054688 C 168.714844 207.941406 169.617188 207.773438 170.511719 207.542969 C 171.40625 207.316406 172.289062 207.03125 173.164062 206.695312 C 174.035156 206.359375 174.890625 205.964844 175.730469 205.519531 C 176.574219 205.074219 177.398438 204.574219 178.203125 204.023438 C 179.007812 203.476562 179.789062 202.878906 180.542969 202.234375 C 181.300781 201.585938 182.035156 200.894531 182.742188 200.152344 C 183.445312 199.414062 184.121094 198.632812 184.765625 197.808594 C 185.410156 196.988281 186.019531 196.125 186.597656 195.222656 C 187.175781 194.324219 187.714844 193.386719 188.222656 192.417969 C 188.730469 191.449219 189.199219 190.453125 189.628906 189.425781 C 190.058594 188.398438 190.449219 187.34375 190.796875 186.269531 C 191.144531 185.191406 191.449219 184.097656 191.714844 182.984375 C 191.984375 181.871094 192.203125 180.742188 192.378906 179.597656 C 192.558594 178.453125 192.691406 177.304688 192.78125 176.144531 C 192.867188 174.988281 192.914062 173.824219 192.914062 172.65625 C 192.914062 171.492188 192.867188 170.332031 192.78125 169.171875 C 192.691406 168.011719 192.558594 166.863281 192.378906 165.71875 C 192.203125 164.574219 191.984375 163.449219 191.714844 162.332031 C 191.449219 161.21875 191.144531 160.125 190.796875 159.046875 C 190.449219 157.972656 190.058594 156.917969 189.628906 155.890625 C 189.199219 154.863281 188.730469 153.867188 188.222656 152.898438 C 187.714844 151.929688 187.175781 150.992188 186.597656 150.09375 C 186.019531 149.191406 185.410156 148.332031 184.765625 147.507812 C 184.121094 146.683594 183.445312 145.902344 182.742188 145.167969 C 182.035156 144.425781 181.300781 143.730469 180.542969 143.085938 C 179.789062 142.4375 179.007812 141.839844 178.203125 141.289062 C 177.398438 140.742188 176.574219 140.242188 175.730469 139.800781 C 174.890625 139.351562 174.035156 138.960938 173.164062 138.621094 C 172.289062 138.28125 171.40625 138.003906 170.511719 137.777344 C 169.617188 137.546875 168.714844 137.375 167.808594 137.261719 C 166.902344 137.148438 165.992188 137.09375 165.082031 137.09375 C 164.167969 137.09375 163.257812 137.148438 162.351562 137.261719 C 161.445312 137.375 160.546875 137.546875 159.648438 137.777344 C 158.753906 138.003906 157.875 138.28125 157.003906 138.621094 C 156.128906 138.960938 155.269531 139.351562 154.429688 139.800781 C 153.585938 140.242188 152.765625 140.742188 151.960938 141.289062 C 151.160156 141.839844 150.375 142.4375 149.617188 143.085938 C 148.859375 143.730469 148.128906 144.425781 147.425781 145.167969 C 146.71875 145.902344 146.046875 146.683594 145.402344 147.507812 C 144.757812 148.332031 144.140625 149.191406 143.566406 150.09375 C 142.984375 150.992188 142.445312 151.929688 141.9375 152.898438 C 141.429688 153.867188 140.960938 154.863281 140.53125 155.890625 C 140.101562 156.917969 139.714844 157.972656 139.367188 159.046875 C 139.015625 160.125 138.710938 161.21875 138.445312 162.332031 C 138.183594 163.449219 137.957031 164.574219 137.78125 165.71875 C 137.605469 166.863281 137.472656 168.011719 137.382812 169.171875 C 137.292969 170.332031 137.25 171.492188 137.25 172.65625 Z M 137.25 172.65625 " fill-opacity="1" fill-rule="nonzero"/><path fill="#000000" d="M 222.550781 178.617188 C 222.550781 179.296875 222.621094 179.972656 222.753906 180.640625 C 222.886719 181.3125 223.082031 181.960938 223.339844 182.589844 C 223.605469 183.21875 223.921875 183.816406 224.304688 184.382812 C 224.683594 184.953125 225.113281 185.476562 225.59375 185.960938 C 226.074219 186.441406 226.597656 186.871094 227.164062 187.25 C 227.734375 187.628906 228.335938 187.949219 228.960938 188.207031 C 229.59375 188.46875 230.242188 188.667969 230.914062 188.800781 C 231.578125 188.933594 232.253906 189 232.9375 189 C 233.621094 189 234.292969 188.933594 234.964844 188.800781 C 235.628906 188.667969 236.28125 188.46875 236.910156 188.207031 C 237.542969 187.949219 238.140625 187.628906 238.707031 187.25 C 239.273438 186.871094 239.796875 186.441406 240.28125 185.960938 C 240.761719 185.476562 241.191406 184.953125 241.574219 184.382812 C 241.953125 183.816406 242.269531 183.21875 242.53125 182.589844 C 242.792969 181.960938 242.988281 181.3125 243.121094 180.640625 C 243.253906 179.972656 243.320312 179.296875 243.320312 178.617188 C 243.320312 177.933594 243.253906 177.261719 243.121094 176.589844 C 242.988281 175.917969 242.792969 175.269531 242.53125 174.644531 C 242.269531 174.011719 241.953125 173.414062 241.574219 172.847656 C 241.191406 172.28125 240.761719 171.753906 240.28125 171.273438 C 239.796875 170.789062 239.273438 170.359375 238.707031 169.980469 C 238.140625 169.601562 237.542969 169.285156 236.910156 169.023438 C 236.28125 168.761719 235.628906 168.5625 234.964844 168.429688 C 234.292969 168.296875 233.621094 168.230469 232.9375 168.230469 C 232.253906 168.230469 231.578125 168.296875 230.914062 168.429688 C 230.242188 168.5625 229.59375 168.761719 228.960938 169.023438 C 228.335938 169.285156 227.734375 169.601562 227.164062 169.980469 C 226.597656 170.359375 226.074219 170.789062 225.59375 171.273438 C 225.113281 171.753906 224.683594 172.28125 224.304688 172.847656 C 223.921875 173.414062 223.605469 174.011719 223.339844 174.644531 C 223.082031 175.269531 222.886719 175.917969 222.753906 176.589844 C 222.621094 177.261719 222.550781 177.933594 222.550781 178.617188 Z M 222.550781 178.617188 " fill-opacity="1" fill-rule="nonzero"/><path fill="#000000" d="M 164.546875 178.617188 C 164.546875 179.296875 164.617188 179.972656 164.75 180.640625 C 164.882812 181.3125 165.074219 181.960938 165.339844 182.589844 C 165.601562 183.21875 165.917969 183.816406 166.296875 184.382812 C 166.679688 184.953125 167.109375 185.476562 167.589844 185.960938 C 168.070312 186.441406 168.59375 186.871094 169.164062 187.25 C 169.730469 187.628906 170.332031 187.949219 170.957031 188.207031 C 171.589844 188.46875 172.238281 188.667969 172.90625 188.800781 C 173.574219 188.933594 174.25 189 174.933594 189 C 175.617188 189 176.289062 188.933594 176.957031 188.800781 C 177.628906 188.667969 178.277344 188.46875 178.90625 188.207031 C 179.535156 187.949219 180.136719 187.628906 180.703125 187.25 C 181.269531 186.871094 181.796875 186.441406 182.277344 185.960938 C 182.757812 185.476562 183.1875 184.953125 183.566406 184.382812 C 183.949219 183.816406 184.265625 183.21875 184.527344 182.589844 C 184.789062 181.960938 184.984375 181.3125 185.117188 180.640625 C 185.25 179.972656 185.320312 179.296875 185.320312 178.617188 C 185.320312 177.933594 185.25 177.261719 185.117188 176.589844 C 184.984375 175.917969 184.789062 175.269531 184.527344 174.644531 C 184.265625 174.011719 183.949219 173.414062 183.566406 172.847656 C 183.1875 172.28125 182.757812 171.753906 182.277344 171.273438 C 181.796875 170.789062 181.269531 170.359375 180.703125 169.980469 C 180.136719 169.601562 179.535156 169.285156 178.90625 169.023438 C 178.277344 168.761719 177.628906 168.5625 176.957031 168.429688 C 176.289062 168.296875 175.617188 168.230469 174.933594 168.230469 C 174.25 168.230469 173.574219 168.296875 172.90625 168.429688 C 172.238281 168.5625 171.589844 168.761719 170.957031 169.023438 C 170.332031 169.285156 169.730469 169.601562 169.164062 169.980469 C 168.59375 170.359375 168.070312 170.789062 167.589844 171.273438 C 167.109375 171.753906 166.679688 172.28125 166.296875 172.847656 C 165.917969 173.414062 165.601562 174.011719 165.339844 174.644531 C 165.074219 175.269531 164.882812 175.917969 164.75 176.589844 C 164.617188 177.261719 164.546875 177.933594 164.546875 178.617188 Z M 164.546875 178.617188 " fill-opacity="1" fill-rule="nonzero"/><path fill="#000000" d="M 185.25 266.734375 C 201.972656 266.734375 214.339844 262.402344 214.339844 248.535156 C 214.339844 244.355469 210.242188 240.964844 205.238281 240.964844 L 166.1875 240.964844 C 162.621094 240.964844 159.738281 243.371094 159.738281 246.324219 L 159.738281 253.46875 C 159.738281 264.621094 171.816406 266.734375 185.25 266.734375 Z M 185.25 266.734375 " fill-opacity="1" fill-rule="evenodd"/><path fill="#ffffff" d="M 166.1875 240.964844 L 205.238281 240.964844 C 210.265625 240.964844 214.339844 244.355469 214.339844 248.535156 L 214.339844 248.738281 C 206.851562 251.007812 196.933594 251.910156 185.644531 251.910156 C 175.890625 251.910156 166.628906 251.390625 159.683594 249.570312 L 159.683594 246.324219 C 159.738281 243.398438 162.621094 240.964844 166.1875 240.964844 Z M 166.1875 240.964844 " fill-opacity="1" fill-rule="nonzero"/></svg>