<svg xmlns="http://www.w3.org/2000/svg" xmlns:xlink="http://www.w3.org/1999/xlink" width="500" zoomAndPan="magnify" viewBox="0 0 375 374.999991" height="500" preserveAspectRatio="xMidYMid meet" version="1.0"><path fill="#ffdfbf" d="M 112.925781 177.726562 C 112.925781 117.824219 133.25 75.449219 185.9375 76.136719 C 259.625 77.101562 258.9375 117.824219 258.9375 177.726562 C 258.9375 182.386719 266.523438 181.175781 265.824219 194.949219 C 263.761719 212.449219 257.289062 208.175781 256.4375 212.898438 C 248.0625 259.148438 219.675781 293.101562 185.9375 293.101562 C 151.773438 293.101562 123.101562 258.25 115.136719 211.175781 C 114.386719 206.789062 109.824219 210.449219 109.324219 194.273438 C 108.113281 179.449219 112.925781 182.164062 112.925781 177.726562 Z M 112.925781 177.726562 " fill-opacity="1" fill-rule="evenodd"/><path fill="#ffffff" d="M 169.175781 175.289062 C 169.175781 176.351562 169.132812 177.417969 169.050781 178.476562 C 168.96875 179.539062 168.847656 180.589844 168.6875 181.636719 C 168.523438 182.679688 168.320312 183.710938 168.078125 184.734375 C 167.835938 185.753906 167.554688 186.753906 167.238281 187.738281 C 166.917969 188.722656 166.5625 189.6875 166.167969 190.625 C 165.773438 191.566406 165.347656 192.476562 164.882812 193.363281 C 164.421875 194.25 163.925781 195.105469 163.394531 195.929688 C 162.867188 196.753906 162.308594 197.542969 161.71875 198.296875 C 161.128906 199.046875 160.511719 199.761719 159.867188 200.4375 C 159.222656 201.117188 158.550781 201.75 157.859375 202.339844 C 157.164062 202.933594 156.449219 203.480469 155.714844 203.984375 C 154.980469 204.484375 154.226562 204.941406 153.457031 205.347656 C 152.6875 205.757812 151.902344 206.113281 151.105469 206.425781 C 150.304688 206.734375 149.496094 206.992188 148.679688 207.199219 C 147.863281 207.40625 147.039062 207.5625 146.207031 207.667969 C 145.378906 207.773438 144.546875 207.824219 143.710938 207.824219 C 142.878906 207.824219 142.046875 207.773438 141.214844 207.667969 C 140.386719 207.5625 139.5625 207.40625 138.746094 207.199219 C 137.925781 206.992188 137.117188 206.734375 136.320312 206.425781 C 135.523438 206.113281 134.738281 205.757812 133.96875 205.347656 C 133.199219 204.941406 132.445312 204.484375 131.710938 203.984375 C 130.972656 203.480469 130.257812 202.933594 129.566406 202.339844 C 128.871094 201.75 128.203125 201.117188 127.558594 200.4375 C 126.914062 199.761719 126.296875 199.046875 125.707031 198.296875 C 125.117188 197.542969 124.558594 196.753906 124.03125 195.929688 C 123.5 195.105469 123.003906 194.25 122.542969 193.363281 C 122.078125 192.476562 121.648438 191.566406 121.257812 190.625 C 120.863281 189.6875 120.507812 188.722656 120.1875 187.738281 C 119.867188 186.753906 119.589844 185.753906 119.347656 184.734375 C 119.105469 183.710938 118.902344 182.679688 118.738281 181.636719 C 118.578125 180.589844 118.453125 179.539062 118.371094 178.476562 C 118.289062 177.417969 118.25 176.351562 118.25 175.289062 C 118.25 174.222656 118.289062 173.160156 118.371094 172.097656 C 118.453125 171.039062 118.578125 169.984375 118.738281 168.941406 C 118.902344 167.894531 119.105469 166.863281 119.347656 165.84375 C 119.589844 164.824219 119.867188 163.820312 120.1875 162.835938 C 120.507812 161.851562 120.863281 160.890625 121.257812 159.949219 C 121.648438 159.007812 122.078125 158.097656 122.542969 157.210938 C 123.003906 156.324219 123.5 155.46875 124.03125 154.644531 C 124.558594 153.820312 125.117188 153.035156 125.707031 152.28125 C 126.296875 151.527344 126.914062 150.8125 127.558594 150.136719 C 128.203125 149.460938 128.871094 148.824219 129.566406 148.234375 C 130.257812 147.640625 130.972656 147.09375 131.710938 146.59375 C 132.445312 146.089844 133.199219 145.632812 133.96875 145.226562 C 134.738281 144.820312 135.523438 144.460938 136.320312 144.152344 C 137.117188 143.839844 137.925781 143.582031 138.746094 143.375 C 139.5625 143.167969 140.386719 143.011719 141.214844 142.90625 C 142.046875 142.800781 142.878906 142.75 143.710938 142.75 C 144.546875 142.75 145.378906 142.800781 146.207031 142.90625 C 147.039062 143.011719 147.863281 143.167969 148.679688 143.375 C 149.496094 143.582031 150.304688 143.839844 151.105469 144.152344 C 151.902344 144.460938 152.6875 144.820312 153.457031 145.226562 C 154.226562 145.632812 154.980469 146.089844 155.714844 146.59375 C 156.449219 147.09375 157.164062 147.640625 157.859375 148.234375 C 158.550781 148.824219 159.222656 149.460938 159.867188 150.136719 C 160.511719 150.8125 161.128906 151.527344 161.71875 152.28125 C 162.308594 153.035156 162.867188 153.820312 163.394531 154.644531 C 163.925781 155.46875 164.421875 156.324219 164.882812 157.210938 C 165.347656 158.097656 165.773438 159.007812 166.167969 159.949219 C 166.5625 160.890625 166.917969 161.851562 167.238281 162.835938 C 167.554688 163.820312 167.835938 164.824219 168.078125 165.84375 C 168.320312 166.863281 168.523438 167.894531 168.6875 168.941406 C 168.847656 169.984375 168.96875 171.039062 169.050781 172.097656 C 169.132812 173.160156 169.175781 174.222656 169.175781 175.289062 Z M 169.175781 175.289062 " fill-opacity="1" fill-rule="nonzero"/><path fill="#ffffff" d="M 223.710938 175.289062 C 223.710938 176.351562 223.671875 177.417969 223.589844 178.476562 C 223.507812 179.539062 223.386719 180.589844 223.222656 181.636719 C 223.0625 182.679688 222.859375 183.710938 222.617188 184.734375 C 222.375 185.753906 222.09375 186.753906 221.773438 187.738281 C 221.457031 188.722656 221.097656 189.6875 220.707031 190.625 C 220.3125 191.566406 219.882812 192.476562 219.421875 193.363281 C 218.957031 194.25 218.460938 195.105469 217.933594 195.929688 C 217.402344 196.753906 216.84375 197.542969 216.253906 198.296875 C 215.664062 199.046875 215.046875 199.761719 214.402344 200.4375 C 213.757812 201.117188 213.089844 201.75 212.394531 202.339844 C 211.703125 202.933594 210.988281 203.480469 210.253906 203.984375 C 209.515625 204.484375 208.765625 204.941406 207.992188 205.347656 C 207.222656 205.757812 206.4375 206.113281 205.640625 206.425781 C 204.84375 206.734375 204.035156 206.992188 203.21875 207.199219 C 202.398438 207.40625 201.574219 207.5625 200.746094 207.667969 C 199.914062 207.773438 199.082031 207.824219 198.25 207.824219 C 197.417969 207.824219 196.585938 207.773438 195.753906 207.667969 C 194.925781 207.5625 194.101562 207.40625 193.28125 207.199219 C 192.464844 206.992188 191.65625 206.734375 190.859375 206.425781 C 190.0625 206.113281 189.277344 205.757812 188.507812 205.347656 C 187.734375 204.941406 186.984375 204.484375 186.246094 203.984375 C 185.511719 203.480469 184.796875 202.933594 184.105469 202.339844 C 183.410156 201.75 182.742188 201.117188 182.097656 200.4375 C 181.453125 199.761719 180.835938 199.046875 180.246094 198.296875 C 179.65625 197.542969 179.097656 196.753906 178.566406 195.929688 C 178.039062 195.105469 177.542969 194.25 177.078125 193.363281 C 176.617188 192.476562 176.1875 191.566406 175.792969 190.625 C 175.402344 189.6875 175.042969 188.722656 174.726562 187.738281 C 174.40625 186.753906 174.125 185.753906 173.882812 184.734375 C 173.640625 183.710938 173.4375 182.679688 173.277344 181.636719 C 173.113281 180.589844 172.992188 179.539062 172.910156 178.476562 C 172.828125 177.417969 172.789062 176.351562 172.789062 175.289062 C 172.789062 174.222656 172.828125 173.160156 172.910156 172.097656 C 172.992188 171.039062 173.113281 169.984375 173.277344 168.941406 C 173.4375 167.894531 173.640625 166.863281 173.882812 165.84375 C 174.125 164.824219 174.40625 163.820312 174.726562 162.835938 C 175.042969 161.851562 175.402344 160.890625 175.792969 159.949219 C 176.1875 159.007812 176.617188 158.097656 177.078125 157.210938 C 177.542969 156.324219 178.039062 155.46875 178.566406 154.644531 C 179.097656 153.820312 179.65625 153.035156 180.246094 152.28125 C 180.835938 151.527344 181.453125 150.8125 182.097656 150.136719 C 182.742188 149.460938 183.410156 148.824219 184.105469 148.234375 C 184.796875 147.640625 185.511719 147.09375 186.246094 146.59375 C 186.984375 146.089844 187.734375 145.632812 188.507812 145.226562 C 189.277344 144.820312 190.0625 144.460938 190.859375 144.152344 C 191.65625 143.839844 192.464844 143.582031 193.28125 143.375 C 194.101562 143.167969 194.925781 143.011719 195.753906 142.90625 C 196.585938 142.800781 197.417969 142.75 198.25 142.75 C 199.082031 142.75 199.914062 142.800781 200.746094 142.90625 C 201.574219 143.011719 202.398438 143.167969 203.21875 143.375 C 204.035156 143.582031 204.84375 143.839844 205.640625 144.152344 C 206.4375 144.460938 207.222656 144.820312 207.992188 145.226562 C 208.765625 145.632812 209.515625 146.089844 210.253906 146.59375 C 210.988281 147.09375 211.703125 147.640625 212.394531 148.234375 C 213.089844 148.824219 213.757812 149.460938 214.402344 150.136719 C 215.046875 150.8125 215.664062 151.527344 216.253906 152.28125 C 216.84375 153.035156 217.402344 153.820312 217.933594 154.644531 C 218.460938 155.46875 218.957031 156.324219 219.421875 157.210938 C 219.882812 158.097656 220.3125 159.007812 220.707031 159.949219 C 221.097656 160.890625 221.457031 161.851562 221.773438 162.835938 C 222.09375 163.820312 222.375 164.824219 222.617188 165.84375 C 222.859375 166.863281 223.0625 167.894531 223.222656 168.941406 C 223.386719 169.984375 223.507812 171.039062 223.589844 172.097656 C 223.671875 173.160156 223.710938 174.222656 223.710938 175.289062 Z M 223.710938 175.289062 " fill-opacity="1" fill-rule="nonzero"/><path fill="#ffdfbf" d="M 215.835938 222.3125 C 215.835938 223.199219 215.765625 224.082031 215.621094 224.960938 C 215.476562 225.84375 215.261719 226.714844 214.976562 227.585938 C 214.6875 228.453125 214.332031 229.308594 213.90625 230.15625 C 213.480469 231.003906 212.984375 231.835938 212.421875 232.65625 C 211.859375 233.472656 211.234375 234.269531 210.542969 235.050781 C 209.847656 235.832031 209.09375 236.589844 208.277344 237.328125 C 207.460938 238.0625 206.589844 238.773438 205.65625 239.457031 C 204.726562 240.140625 203.738281 240.796875 202.703125 241.421875 C 201.664062 242.046875 200.574219 242.640625 199.441406 243.203125 C 198.304688 243.765625 197.125 244.292969 195.90625 244.78125 C 194.683594 245.273438 193.425781 245.730469 192.128906 246.144531 C 190.835938 246.5625 189.507812 246.941406 188.152344 247.28125 C 186.792969 247.617188 185.414062 247.917969 184.007812 248.171875 C 182.601562 248.429688 181.179688 248.644531 179.738281 248.816406 C 178.296875 248.992188 176.84375 249.121094 175.382812 249.207031 C 173.921875 249.292969 172.457031 249.335938 170.988281 249.335938 C 169.519531 249.335938 168.054688 249.292969 166.589844 249.207031 C 165.128906 249.121094 163.679688 248.992188 162.238281 248.816406 C 160.796875 248.644531 159.375 248.429688 157.96875 248.171875 C 156.5625 247.917969 155.179688 247.617188 153.824219 247.28125 C 152.46875 246.941406 151.140625 246.5625 149.84375 246.144531 C 148.550781 245.730469 147.292969 245.273438 146.070312 244.78125 C 144.847656 244.292969 143.671875 243.765625 142.535156 243.203125 C 141.398438 242.640625 140.3125 242.046875 139.273438 241.421875 C 138.234375 240.796875 137.25 240.140625 136.316406 239.457031 C 135.386719 238.773438 134.511719 238.0625 133.695312 237.328125 C 132.878906 236.589844 132.125 235.832031 131.433594 235.050781 C 130.742188 234.269531 130.113281 233.472656 129.550781 232.65625 C 128.988281 231.835938 128.496094 231.003906 128.070312 230.15625 C 127.640625 229.308594 127.285156 228.453125 127 227.585938 C 126.710938 226.714844 126.496094 225.84375 126.351562 224.960938 C 126.210938 224.082031 126.136719 223.199219 126.136719 222.3125 C 126.136719 221.425781 126.210938 220.542969 126.351562 219.664062 C 126.496094 218.78125 126.710938 217.910156 127 217.039062 C 127.285156 216.171875 127.640625 215.316406 128.070312 214.46875 C 128.496094 213.621094 128.988281 212.789062 129.550781 211.96875 C 130.113281 211.152344 130.742188 210.355469 131.433594 209.574219 C 132.125 208.792969 132.878906 208.035156 133.695312 207.296875 C 134.511719 206.5625 135.386719 205.851562 136.316406 205.167969 C 137.25 204.484375 138.234375 203.828125 139.273438 203.203125 C 140.3125 202.578125 141.398438 201.984375 142.535156 201.421875 C 143.671875 200.859375 144.847656 200.332031 146.070312 199.84375 C 147.292969 199.351562 148.550781 198.894531 149.84375 198.480469 C 151.140625 198.0625 152.46875 197.683594 153.824219 197.34375 C 155.179688 197.007812 156.5625 196.707031 157.96875 196.453125 C 159.375 196.195312 160.796875 195.980469 162.238281 195.808594 C 163.679688 195.632812 165.128906 195.503906 166.589844 195.417969 C 168.054688 195.332031 169.519531 195.289062 170.988281 195.289062 C 172.457031 195.289062 173.921875 195.332031 175.382812 195.417969 C 176.84375 195.503906 178.296875 195.632812 179.738281 195.808594 C 181.179688 195.980469 182.601562 196.195312 184.007812 196.453125 C 185.414062 196.707031 186.792969 197.007812 188.152344 197.34375 C 189.507812 197.683594 190.835938 198.0625 192.128906 198.480469 C 193.425781 198.894531 194.683594 199.351562 195.90625 199.84375 C 197.125 200.332031 198.304688 200.859375 199.441406 201.421875 C 200.574219 201.984375 201.664062 202.578125 202.703125 203.203125 C 203.738281 203.828125 204.726562 204.484375 205.65625 205.167969 C 206.589844 205.851562 207.460938 206.5625 208.277344 207.296875 C 209.09375 208.035156 209.847656 208.792969 210.542969 209.574219 C 211.234375 210.355469 211.859375 211.152344 212.421875 211.96875 C 212.984375 212.789062 213.480469 213.621094 213.90625 214.46875 C 214.332031 215.316406 214.6875 216.171875 214.976562 217.039062 C 215.261719 217.910156 215.476562 218.78125 215.621094 219.664062 C 215.765625 220.542969 215.835938 221.425781 215.835938 222.3125 Z M 215.835938 222.3125 " fill-opacity="1" fill-rule="nonzero"/><path fill="#474747" d="M 185.9375 76.136719 C 142.5 75.574219 121.0625 104.273438 114.875 147.949219 C 122.8125 126.386719 140.0625 124.460938 173.050781 123.9375 C 236.9375 122.925781 253.050781 131.4375 245.085938 211.261719 C 243.414062 228.085938 248.988281 232.800781 226.550781 242.199219 C 220.851562 244.585938 235.835938 215.949219 179.738281 222.925781 C 121.414062 230.175781 147.238281 255.738281 138.1875 249.4375 C 130.949219 244.285156 124.832031 238.035156 119.835938 230.6875 C 131.5 267.550781 156.710938 293.085938 185.9375 293.085938 C 219.6875 293.085938 248.0625 259.085938 256.4375 212.886719 L 258.9375 177.710938 C 258.9375 117.824219 259.625 77.101562 185.9375 76.136719 Z M 185.9375 76.136719 " fill-opacity="1" fill-rule="evenodd"/><path fill="#000000" d="M 184.675781 76.136719 L 185.925781 76.136719 C 259.613281 77.101562 258.925781 117.824219 258.925781 177.726562 C 258.925781 182.386719 266.511719 181.175781 265.8125 194.949219 C 263.75 212.449219 257.273438 208.175781 256.425781 212.898438 C 248.050781 259.148438 219.664062 293.101562 185.925781 293.101562 C 151.761719 293.101562 123.085938 258.25 115.125 211.175781 C 114.375 206.789062 109.8125 210.449219 109.3125 194.273438 C 108.0625 179.449219 112.914062 182.164062 112.914062 177.726562 C 112.914062 118.300781 132.914062 76.136719 184.664062 76.136719 M 184.664062 67.386719 C 156.875 67.386719 135.789062 78.335938 122.011719 99.886719 C 110.363281 118.136719 104.363281 143.761719 104.175781 176.136719 C 101.3125 179.886719 99.773438 184.726562 100.574219 194.773438 C 100.949219 205.925781 103.210938 210.738281 106.824219 214.226562 C 116.085938 265.914062 148.476562 301.863281 185.976562 301.863281 C 204.726562 301.863281 222.949219 292.699219 237.351562 276.0625 C 250.449219 260.9375 260.101562 239.925781 264.664062 216.699219 C 271.375 212 273.5 204.988281 274.5625 195.988281 L 274.5625 195.398438 C 275.101562 184.613281 271.648438 179.425781 267.675781 175.613281 C 267.675781 145.613281 267.675781 119.601562 257.5625 100.3125 C 246.113281 78.351562 223.386719 67.886719 186.039062 67.398438 Z M 184.664062 67.386719 " fill-opacity="1" fill-rule="nonzero"/><path fill="#474747" d="M 159.511719 213.113281 C 159.511719 213.113281 163.386719 216.988281 171.136719 216.6875 C 178.886719 216.386719 182.449219 211.925781 182.449219 211.925781 C 182.449219 211.925781 179.175781 219.425781 172.023438 219.960938 C 164.875 220.5 159.511719 213.113281 159.511719 213.113281 Z M 159.511719 213.113281 " fill-opacity="1" fill-rule="evenodd"/><path fill="#000000" d="M 145.675781 180.738281 C 145.675781 181.359375 145.613281 181.980469 145.492188 182.589844 C 145.371094 183.203125 145.191406 183.796875 144.953125 184.371094 C 144.714844 184.949219 144.421875 185.496094 144.074219 186.015625 C 143.726562 186.535156 143.332031 187.015625 142.890625 187.453125 C 142.453125 187.894531 141.972656 188.289062 141.453125 188.636719 C 140.933594 188.984375 140.386719 189.277344 139.808594 189.515625 C 139.234375 189.753906 138.640625 189.933594 138.027344 190.054688 C 137.417969 190.175781 136.796875 190.238281 136.175781 190.238281 C 135.550781 190.238281 134.933594 190.175781 134.320312 190.054688 C 133.710938 189.933594 133.117188 189.753906 132.539062 189.515625 C 131.964844 189.277344 131.414062 188.984375 130.898438 188.636719 C 130.378906 188.289062 129.898438 187.894531 129.457031 187.453125 C 129.015625 187.015625 128.621094 186.535156 128.277344 186.015625 C 127.929688 185.496094 127.636719 184.949219 127.398438 184.371094 C 127.160156 183.796875 126.980469 183.203125 126.859375 182.589844 C 126.734375 181.980469 126.675781 181.359375 126.675781 180.738281 C 126.675781 180.113281 126.734375 179.496094 126.859375 178.882812 C 126.980469 178.273438 127.160156 177.679688 127.398438 177.101562 C 127.636719 176.527344 127.929688 175.976562 128.277344 175.460938 C 128.621094 174.941406 129.015625 174.460938 129.457031 174.019531 C 129.898438 173.578125 130.378906 173.183594 130.898438 172.839844 C 131.414062 172.492188 131.964844 172.199219 132.539062 171.960938 C 133.117188 171.722656 133.710938 171.542969 134.320312 171.421875 C 134.933594 171.296875 135.550781 171.238281 136.175781 171.238281 C 136.796875 171.238281 137.417969 171.296875 138.027344 171.421875 C 138.640625 171.542969 139.234375 171.722656 139.808594 171.960938 C 140.386719 172.199219 140.933594 172.492188 141.453125 172.839844 C 141.972656 173.183594 142.453125 173.578125 142.890625 174.019531 C 143.332031 174.460938 143.726562 174.941406 144.074219 175.460938 C 144.421875 175.976562 144.714844 176.527344 144.953125 177.101562 C 145.191406 177.679688 145.371094 178.273438 145.492188 178.882812 C 145.613281 179.496094 145.675781 180.113281 145.675781 180.738281 Z M 145.675781 180.738281 " fill-opacity="1" fill-rule="nonzero"/><path fill="#000000" d="M 198.738281 180.738281 C 198.738281 181.359375 198.675781 181.980469 198.554688 182.589844 C 198.433594 183.203125 198.253906 183.796875 198.015625 184.371094 C 197.777344 184.949219 197.484375 185.496094 197.136719 186.015625 C 196.789062 186.535156 196.394531 187.015625 195.953125 187.453125 C 195.515625 187.894531 195.035156 188.289062 194.515625 188.636719 C 193.996094 188.984375 193.449219 189.277344 192.871094 189.515625 C 192.296875 189.753906 191.703125 189.933594 191.089844 190.054688 C 190.480469 190.175781 189.859375 190.238281 189.238281 190.238281 C 188.613281 190.238281 187.996094 190.175781 187.382812 190.054688 C 186.773438 189.933594 186.179688 189.753906 185.601562 189.515625 C 185.027344 189.277344 184.476562 188.984375 183.960938 188.636719 C 183.441406 188.289062 182.960938 187.894531 182.519531 187.453125 C 182.078125 187.015625 181.683594 186.535156 181.339844 186.015625 C 180.992188 185.496094 180.699219 184.949219 180.460938 184.371094 C 180.222656 183.796875 180.042969 183.203125 179.921875 182.589844 C 179.796875 181.980469 179.738281 181.359375 179.738281 180.738281 C 179.738281 180.113281 179.796875 179.496094 179.921875 178.882812 C 180.042969 178.273438 180.222656 177.679688 180.460938 177.101562 C 180.699219 176.527344 180.992188 175.976562 181.339844 175.460938 C 181.683594 174.941406 182.078125 174.460938 182.519531 174.019531 C 182.960938 173.578125 183.441406 173.183594 183.960938 172.839844 C 184.476562 172.492188 185.027344 172.199219 185.601562 171.960938 C 186.179688 171.722656 186.773438 171.542969 187.382812 171.421875 C 187.996094 171.296875 188.613281 171.238281 189.238281 171.238281 C 189.859375 171.238281 190.480469 171.296875 191.089844 171.421875 C 191.703125 171.542969 192.296875 171.722656 192.871094 171.960938 C 193.449219 172.199219 193.996094 172.492188 194.515625 172.839844 C 195.035156 173.183594 195.515625 173.578125 195.953125 174.019531 C 196.394531 174.460938 196.789062 174.941406 197.136719 175.460938 C 197.484375 175.976562 197.777344 176.527344 198.015625 177.101562 C 198.253906 177.679688 198.433594 178.273438 198.554688 178.882812 C 198.675781 179.496094 198.738281 180.113281 198.738281 180.738281 Z M 198.738281 180.738281 " fill-opacity="1" fill-rule="nonzero"/><path fill="#000000" d="M 188.9375 275 C 169.851562 277.125 154.949219 271.625 152.414062 248.898438 C 151.636719 242.074219 155.675781 236.011719 161.414062 235.375 L 205.976562 230.375 C 210.039062 229.914062 213.773438 233.476562 214.3125 238.3125 L 215.625 250 C 217.664062 268.289062 204.261719 273.300781 188.9375 275 Z M 188.9375 275 " fill-opacity="1" fill-rule="evenodd"/><path fill="#ffffff" d="M 205.976562 230.414062 L 161.414062 235.414062 C 155.675781 236.050781 151.414062 239.648438 151.789062 243.449219 L 151.789062 243.636719 C 160.539062 244.75 171.960938 244.300781 184.800781 242.863281 C 195.925781 241.613281 206.449219 239.976562 214.175781 237.425781 L 213.835938 234.476562 C 213.574219 231.761719 210 230 205.976562 230.414062 Z M 205.976562 230.414062 " fill-opacity="1" fill-rule="nonzero"/></svg>