<svg xmlns="http://www.w3.org/2000/svg" xmlns:xlink="http://www.w3.org/1999/xlink" width="500" zoomAndPan="magnify" viewBox="0 0 375 374.999991" height="500" preserveAspectRatio="xMidYMid meet" version="1.0"><path fill="#ffdfbf" d="M 112.925781 177.726562 C 112.925781 117.824219 133.25 75.449219 185.9375 76.136719 C 259.625 77.101562 258.9375 117.824219 258.9375 177.726562 C 258.9375 182.386719 266.523438 181.175781 265.824219 194.949219 C 263.761719 212.449219 257.289062 208.175781 256.4375 212.898438 C 248.0625 259.148438 219.675781 293.101562 185.9375 293.101562 C 151.773438 293.101562 123.101562 258.25 115.136719 211.175781 C 114.386719 206.789062 109.824219 210.449219 109.324219 194.273438 C 108.113281 179.449219 112.925781 182.164062 112.925781 177.726562 Z M 112.925781 177.726562 " fill-opacity="1" fill-rule="evenodd"/><path fill="#ffffff" d="M 169.175781 175.289062 C 169.175781 176.351562 169.132812 177.417969 169.050781 178.476562 C 168.96875 179.539062 168.847656 180.589844 168.6875 181.636719 C 168.523438 182.679688 168.320312 183.710938 168.078125 184.734375 C 167.835938 185.753906 167.554688 186.753906 167.238281 187.738281 C 166.917969 188.722656 166.5625 189.6875 166.167969 190.625 C 165.773438 191.566406 165.347656 192.476562 164.882812 193.363281 C 164.421875 194.25 163.925781 195.105469 163.394531 195.929688 C 162.867188 196.753906 162.308594 197.542969 161.71875 198.296875 C 161.128906 199.046875 160.511719 199.761719 159.867188 200.4375 C 159.222656 201.117188 158.550781 201.75 157.859375 202.339844 C 157.164062 202.933594 156.449219 203.480469 155.714844 203.984375 C 154.980469 204.484375 154.226562 204.941406 153.457031 205.347656 C 152.6875 205.757812 151.902344 206.113281 151.105469 206.425781 C 150.304688 206.734375 149.496094 206.992188 148.679688 207.199219 C 147.863281 207.40625 147.039062 207.5625 146.207031 207.667969 C 145.378906 207.773438 144.546875 207.824219 143.710938 207.824219 C 142.878906 207.824219 142.046875 207.773438 141.214844 207.667969 C 140.386719 207.5625 139.5625 207.40625 138.746094 207.199219 C 137.925781 206.992188 137.117188 206.734375 136.320312 206.425781 C 135.523438 206.113281 134.738281 205.757812 133.96875 205.347656 C 133.199219 204.941406 132.445312 204.484375 131.710938 203.984375 C 130.972656 203.480469 130.257812 202.933594 129.566406 202.339844 C 128.871094 201.75 128.203125 201.117188 127.558594 200.4375 C 126.914062 199.761719 126.296875 199.046875 125.707031 198.296875 C 125.117188 197.542969 124.558594 196.753906 124.03125 195.929688 C 123.5 195.105469 123.003906 194.25 122.542969 193.363281 C 122.078125 192.476562 121.648438 191.566406 121.257812 190.625 C 120.863281 189.6875 120.507812 188.722656 120.1875 187.738281 C 119.867188 186.753906 119.589844 185.753906 119.347656 184.734375 C 119.105469 183.710938 118.902344 182.679688 118.738281 181.636719 C 118.578125 180.589844 118.453125 179.539062 118.371094 178.476562 C 118.289062 177.417969 118.25 176.351562 118.25 175.289062 C 118.25 174.222656 118.289062 173.160156 118.371094 172.097656 C 118.453125 171.039062 118.578125 169.984375 118.738281 168.941406 C 118.902344 167.894531 119.105469 166.863281 119.347656 165.84375 C 119.589844 164.824219 119.867188 163.820312 120.1875 162.835938 C 120.507812 161.851562 120.863281 160.890625 121.257812 159.949219 C 121.648438 159.007812 122.078125 158.097656 122.542969 157.210938 C 123.003906 156.324219 123.5 155.46875 124.03125 154.644531 C 124.558594 153.820312 125.117188 153.035156 125.707031 152.28125 C 126.296875 151.527344 126.914062 150.8125 127.558594 150.136719 C 128.203125 149.460938 128.871094 148.824219 129.566406 148.234375 C 130.257812 147.640625 130.972656 147.09375 131.710938 146.59375 C 132.445312 146.089844 133.199219 145.632812 133.96875 145.226562 C 134.738281 144.820312 135.523438 144.460938 136.320312 144.152344 C 137.117188 143.839844 137.925781 143.582031 138.746094 143.375 C 139.5625 143.167969 140.386719 143.011719 141.214844 142.90625 C 142.046875 142.800781 142.878906 142.75 143.710938 142.75 C 144.546875 142.75 145.378906 142.800781 146.207031 142.90625 C 147.039062 143.011719 147.863281 143.167969 148.679688 143.375 C 149.496094 143.582031 150.304688 143.839844 151.105469 144.152344 C 151.902344 144.460938 152.6875 144.820312 153.457031 145.226562 C 154.226562 145.632812 154.980469 146.089844 155.714844 146.59375 C 156.449219 147.09375 157.164062 147.640625 157.859375 148.234375 C 158.550781 148.824219 159.222656 149.460938 159.867188 150.136719 C 160.511719 150.8125 161.128906 151.527344 161.71875 152.28125 C 162.308594 153.035156 162.867188 153.820312 163.394531 154.644531 C 163.925781 155.46875 164.421875 156.324219 164.882812 157.210938 C 165.347656 158.097656 165.773438 159.007812 166.167969 159.949219 C 166.5625 160.890625 166.917969 161.851562 167.238281 162.835938 C 167.554688 163.820312 167.835938 164.824219 168.078125 165.84375 C 168.320312 166.863281 168.523438 167.894531 168.6875 168.941406 C 168.847656 169.984375 168.96875 171.039062 169.050781 172.097656 C 169.132812 173.160156 169.175781 174.222656 169.175781 175.289062 Z M 169.175781 175.289062 " fill-opacity="1" fill-rule="nonzero"/><path fill="#ffffff" d="M 223.710938 175.289062 C 223.710938 176.351562 223.671875 177.417969 223.589844 178.476562 C 223.507812 179.539062 223.386719 180.589844 223.222656 181.636719 C 223.0625 182.679688 222.859375 183.710938 222.617188 184.734375 C 222.375 185.753906 222.09375 186.753906 221.773438 187.738281 C 221.457031 188.722656 221.097656 189.6875 220.707031 190.625 C 220.3125 191.566406 219.882812 192.476562 219.421875 193.363281 C 218.957031 194.25 218.460938 195.105469 217.933594 195.929688 C 217.402344 196.753906 216.84375 197.542969 216.253906 198.296875 C 215.664062 199.046875 215.046875 199.761719 214.402344 200.4375 C 213.757812 201.117188 213.089844 201.75 212.394531 202.339844 C 211.703125 202.933594 210.988281 203.480469 210.253906 203.984375 C 209.515625 204.484375 208.765625 204.941406 207.992188 205.347656 C 207.222656 205.757812 206.4375 206.113281 205.640625 206.425781 C 204.84375 206.734375 204.035156 206.992188 203.21875 207.199219 C 202.398438 207.40625 201.574219 207.5625 200.746094 207.667969 C 199.914062 207.773438 199.082031 207.824219 198.25 207.824219 C 197.417969 207.824219 196.585938 207.773438 195.753906 207.667969 C 194.925781 207.5625 194.101562 207.40625 193.28125 207.199219 C 192.464844 206.992188 191.65625 206.734375 190.859375 206.425781 C 190.0625 206.113281 189.277344 205.757812 188.507812 205.347656 C 187.734375 204.941406 186.984375 204.484375 186.246094 203.984375 C 185.511719 203.480469 184.796875 202.933594 184.105469 202.339844 C 183.410156 201.75 182.742188 201.117188 182.097656 200.4375 C 181.453125 199.761719 180.835938 199.046875 180.246094 198.296875 C 179.65625 197.542969 179.097656 196.753906 178.566406 195.929688 C 178.039062 195.105469 177.542969 194.25 177.078125 193.363281 C 176.617188 192.476562 176.1875 191.566406 175.792969 190.625 C 175.402344 189.6875 175.042969 188.722656 174.726562 187.738281 C 174.40625 186.753906 174.125 185.753906 173.882812 184.734375 C 173.640625 183.710938 173.4375 182.679688 173.277344 181.636719 C 173.113281 180.589844 172.992188 179.539062 172.910156 178.476562 C 172.828125 177.417969 172.789062 176.351562 172.789062 175.289062 C 172.789062 174.222656 172.828125 173.160156 172.910156 172.097656 C 172.992188 171.039062 173.113281 169.984375 173.277344 168.941406 C 173.4375 167.894531 173.640625 166.863281 173.882812 165.84375 C 174.125 164.824219 174.40625 163.820312 174.726562 162.835938 C 175.042969 161.851562 175.402344 160.890625 175.792969 159.949219 C 176.1875 159.007812 176.617188 158.097656 177.078125 157.210938 C 177.542969 156.324219 178.039062 155.46875 178.566406 154.644531 C 179.097656 153.820312 179.65625 153.035156 180.246094 152.28125 C 180.835938 151.527344 181.453125 150.8125 182.097656 150.136719 C 182.742188 149.460938 183.410156 148.824219 184.105469 148.234375 C 184.796875 147.640625 185.511719 147.09375 186.246094 146.59375 C 186.984375 146.089844 187.734375 145.632812 188.507812 145.226562 C 189.277344 144.820312 190.0625 144.460938 190.859375 144.152344 C 191.65625 143.839844 192.464844 143.582031 193.28125 143.375 C 194.101562 143.167969 194.925781 143.011719 195.753906 142.90625 C 196.585938 142.800781 197.417969 142.75 198.25 142.75 C 199.082031 142.75 199.914062 142.800781 200.746094 142.90625 C 201.574219 143.011719 202.398438 143.167969 203.21875 143.375 C 204.035156 143.582031 204.84375 143.839844 205.640625 144.152344 C 206.4375 144.460938 207.222656 144.820312 207.992188 145.226562 C 208.765625 145.632812 209.515625 146.089844 210.253906 146.59375 C 210.988281 147.09375 211.703125 147.640625 212.394531 148.234375 C 213.089844 148.824219 213.757812 149.460938 214.402344 150.136719 C 215.046875 150.8125 215.664062 151.527344 216.253906 152.28125 C 216.84375 153.035156 217.402344 153.820312 217.933594 154.644531 C 218.460938 155.46875 218.957031 156.324219 219.421875 157.210938 C 219.882812 158.097656 220.3125 159.007812 220.707031 159.949219 C 221.097656 160.890625 221.457031 161.851562 221.773438 162.835938 C 222.09375 163.820312 222.375 164.824219 222.617188 165.84375 C 222.859375 166.863281 223.0625 167.894531 223.222656 168.941406 C 223.386719 169.984375 223.507812 171.039062 223.589844 172.097656 C 223.671875 173.160156 223.710938 174.222656 223.710938 175.289062 Z M 223.710938 175.289062 " fill-opacity="1" fill-rule="nonzero"/><path fill="#000000" d="M 148.175781 194.488281 C 148.175781 195.109375 148.113281 195.730469 147.992188 196.339844 C 147.871094 196.953125 147.691406 197.546875 147.453125 198.121094 C 147.214844 198.699219 146.921875 199.246094 146.574219 199.765625 C 146.226562 200.285156 145.832031 200.765625 145.390625 201.203125 C 144.953125 201.644531 144.472656 202.039062 143.953125 202.386719 C 143.433594 202.734375 142.886719 203.027344 142.308594 203.265625 C 141.734375 203.503906 141.140625 203.683594 140.527344 203.804688 C 139.917969 203.925781 139.296875 203.988281 138.675781 203.988281 C 138.050781 203.988281 137.433594 203.925781 136.820312 203.804688 C 136.210938 203.683594 135.617188 203.503906 135.039062 203.265625 C 134.464844 203.027344 133.914062 202.734375 133.398438 202.386719 C 132.878906 202.039062 132.398438 201.644531 131.957031 201.203125 C 131.515625 200.765625 131.121094 200.285156 130.777344 199.765625 C 130.429688 199.246094 130.136719 198.699219 129.898438 198.121094 C 129.660156 197.546875 129.480469 196.953125 129.359375 196.339844 C 129.234375 195.730469 129.175781 195.109375 129.175781 194.488281 C 129.175781 193.863281 129.234375 193.246094 129.359375 192.632812 C 129.480469 192.023438 129.660156 191.429688 129.898438 190.851562 C 130.136719 190.277344 130.429688 189.726562 130.777344 189.210938 C 131.121094 188.691406 131.515625 188.210938 131.957031 187.769531 C 132.398438 187.328125 132.878906 186.933594 133.398438 186.589844 C 133.914062 186.242188 134.464844 185.949219 135.039062 185.710938 C 135.617188 185.472656 136.210938 185.292969 136.820312 185.171875 C 137.433594 185.046875 138.050781 184.988281 138.675781 184.988281 C 139.296875 184.988281 139.917969 185.046875 140.527344 185.171875 C 141.140625 185.292969 141.734375 185.472656 142.308594 185.710938 C 142.886719 185.949219 143.433594 186.242188 143.953125 186.589844 C 144.472656 186.933594 144.953125 187.328125 145.390625 187.769531 C 145.832031 188.210938 146.226562 188.691406 146.574219 189.210938 C 146.921875 189.726562 147.214844 190.277344 147.453125 190.851562 C 147.691406 191.429688 147.871094 192.023438 147.992188 192.632812 C 148.113281 193.246094 148.175781 193.863281 148.175781 194.488281 Z M 148.175781 194.488281 " fill-opacity="1" fill-rule="nonzero"/><path fill="#000000" d="M 201.238281 194.488281 C 201.238281 195.109375 201.175781 195.730469 201.054688 196.339844 C 200.933594 196.953125 200.753906 197.546875 200.515625 198.121094 C 200.277344 198.699219 199.984375 199.246094 199.636719 199.765625 C 199.289062 200.285156 198.894531 200.765625 198.453125 201.203125 C 198.015625 201.644531 197.535156 202.039062 197.015625 202.386719 C 196.496094 202.734375 195.949219 203.027344 195.371094 203.265625 C 194.796875 203.503906 194.203125 203.683594 193.589844 203.804688 C 192.980469 203.925781 192.359375 203.988281 191.738281 203.988281 C 191.113281 203.988281 190.496094 203.925781 189.882812 203.804688 C 189.273438 203.683594 188.679688 203.503906 188.101562 203.265625 C 187.527344 203.027344 186.976562 202.734375 186.460938 202.386719 C 185.941406 202.039062 185.460938 201.644531 185.019531 201.203125 C 184.578125 200.765625 184.183594 200.285156 183.839844 199.765625 C 183.492188 199.246094 183.199219 198.699219 182.960938 198.121094 C 182.722656 197.546875 182.542969 196.953125 182.421875 196.339844 C 182.296875 195.730469 182.238281 195.109375 182.238281 194.488281 C 182.238281 193.863281 182.296875 193.246094 182.421875 192.632812 C 182.542969 192.023438 182.722656 191.429688 182.960938 190.851562 C 183.199219 190.277344 183.492188 189.726562 183.839844 189.210938 C 184.183594 188.691406 184.578125 188.210938 185.019531 187.769531 C 185.460938 187.328125 185.941406 186.933594 186.460938 186.589844 C 186.976562 186.242188 187.527344 185.949219 188.101562 185.710938 C 188.679688 185.472656 189.273438 185.292969 189.882812 185.171875 C 190.496094 185.046875 191.113281 184.988281 191.738281 184.988281 C 192.359375 184.988281 192.980469 185.046875 193.589844 185.171875 C 194.203125 185.292969 194.796875 185.472656 195.371094 185.710938 C 195.949219 185.949219 196.496094 186.242188 197.015625 186.589844 C 197.535156 186.933594 198.015625 187.328125 198.453125 187.769531 C 198.894531 188.210938 199.289062 188.691406 199.636719 189.210938 C 199.984375 189.726562 200.277344 190.277344 200.515625 190.851562 C 200.753906 191.429688 200.933594 192.023438 201.054688 192.632812 C 201.175781 193.246094 201.238281 193.863281 201.238281 194.488281 Z M 201.238281 194.488281 " fill-opacity="1" fill-rule="nonzero"/><path fill="#ffdfbf" d="M 214.558594 142.242188 C 215.507812 142.789062 216.433594 143.355469 217.347656 143.949219 C 218.257812 144.542969 219.148438 145.160156 220.019531 145.796875 C 220.886719 146.4375 221.730469 147.09375 222.546875 147.769531 C 223.363281 148.445312 224.148438 149.136719 224.90625 149.84375 C 225.664062 150.550781 226.386719 151.269531 227.078125 152.003906 C 227.765625 152.734375 228.421875 153.476562 229.035156 154.226562 C 229.652344 154.976562 230.230469 155.730469 230.765625 156.488281 C 231.304688 157.25 231.796875 158.011719 232.25 158.773438 C 232.699219 159.539062 233.109375 160.296875 233.472656 161.058594 C 233.835938 161.816406 234.152344 162.566406 234.421875 163.316406 C 234.691406 164.0625 234.914062 164.800781 235.089844 165.527344 C 235.265625 166.257812 235.390625 166.972656 235.46875 167.675781 C 235.546875 168.375 235.578125 169.0625 235.558594 169.734375 C 235.539062 170.402344 235.46875 171.054688 235.351562 171.683594 C 235.238281 172.316406 235.070312 172.921875 234.859375 173.507812 C 234.644531 174.09375 234.386719 174.65625 234.078125 175.191406 C 233.769531 175.726562 233.417969 176.230469 233.019531 176.710938 C 232.621094 177.191406 232.175781 177.640625 231.691406 178.058594 C 231.203125 178.476562 230.675781 178.863281 230.109375 179.214844 C 229.539062 179.570312 228.929688 179.890625 228.285156 180.175781 C 227.636719 180.460938 226.957031 180.710938 226.238281 180.929688 C 225.523438 181.144531 224.773438 181.324219 223.992188 181.464844 C 223.207031 181.609375 222.398438 181.714844 221.5625 181.78125 C 220.722656 181.851562 219.859375 181.878906 218.972656 181.875 C 218.085938 181.867188 217.179688 181.824219 216.253906 181.742188 C 215.324219 181.660156 214.382812 181.542969 213.425781 181.386719 C 212.46875 181.234375 211.5 181.042969 210.519531 180.8125 C 209.539062 180.585938 208.554688 180.324219 207.558594 180.027344 C 206.566406 179.726562 205.574219 179.394531 204.578125 179.03125 C 203.585938 178.664062 202.59375 178.269531 201.605469 177.839844 C 200.617188 177.410156 199.636719 176.949219 198.664062 176.460938 C 197.691406 175.972656 196.730469 175.457031 195.785156 174.910156 C 194.835938 174.367188 193.90625 173.796875 192.996094 173.203125 C 192.085938 172.609375 191.195312 171.996094 190.324219 171.355469 C 189.457031 170.71875 188.613281 170.0625 187.796875 169.386719 C 186.980469 168.710938 186.195312 168.019531 185.4375 167.3125 C 184.679688 166.605469 183.957031 165.882812 183.265625 165.152344 C 182.578125 164.417969 181.921875 163.679688 181.308594 162.929688 C 180.691406 162.179688 180.113281 161.425781 179.578125 160.664062 C 179.039062 159.90625 178.546875 159.144531 178.09375 158.378906 C 177.640625 157.617188 177.234375 156.855469 176.871094 156.097656 C 176.507812 155.339844 176.191406 154.585938 175.921875 153.839844 C 175.652344 153.09375 175.429688 152.355469 175.253906 151.625 C 175.078125 150.898438 174.953125 150.183594 174.875 149.480469 C 174.796875 148.777344 174.765625 148.089844 174.785156 147.421875 C 174.804688 146.75 174.875 146.101562 174.988281 145.472656 C 175.105469 144.839844 175.273438 144.230469 175.484375 143.644531 C 175.699219 143.058594 175.957031 142.5 176.265625 141.964844 C 176.574219 141.429688 176.925781 140.921875 177.324219 140.445312 C 177.722656 139.964844 178.167969 139.515625 178.652344 139.097656 C 179.140625 138.679688 179.667969 138.292969 180.234375 137.9375 C 180.804688 137.585938 181.414062 137.265625 182.058594 136.980469 C 182.703125 136.691406 183.386719 136.441406 184.105469 136.226562 C 184.820312 136.011719 185.570312 135.832031 186.351562 135.691406 C 187.132812 135.546875 187.945312 135.441406 188.78125 135.375 C 189.621094 135.304688 190.484375 135.273438 191.371094 135.28125 C 192.257812 135.285156 193.164062 135.332031 194.089844 135.410156 C 195.019531 135.492188 195.960938 135.613281 196.917969 135.765625 C 197.875 135.921875 198.84375 136.113281 199.824219 136.339844 C 200.804688 136.570312 201.789062 136.832031 202.78125 137.128906 C 203.773438 137.425781 204.769531 137.757812 205.765625 138.125 C 206.757812 138.488281 207.75 138.886719 208.738281 139.316406 C 209.726562 139.746094 210.707031 140.203125 211.679688 140.695312 C 212.652344 141.183594 213.613281 141.699219 214.558594 142.242188 Z M 214.558594 142.242188 " fill-opacity="1" fill-rule="nonzero"/><path fill="#ffdfbf" d="M 165.171875 138.632812 C 165.511719 139.144531 165.804688 139.6875 166.050781 140.257812 C 166.300781 140.828125 166.5 141.421875 166.65625 142.042969 C 166.808594 142.664062 166.917969 143.304688 166.976562 143.972656 C 167.035156 144.636719 167.046875 145.320312 167.011719 146.023438 C 166.976562 146.726562 166.894531 147.449219 166.765625 148.183594 C 166.632812 148.917969 166.457031 149.664062 166.234375 150.425781 C 166.007812 151.183594 165.738281 151.953125 165.425781 152.726562 C 165.109375 153.503906 164.75 154.285156 164.347656 155.074219 C 163.941406 155.859375 163.496094 156.644531 163.007812 157.433594 C 162.519531 158.222656 161.992188 159.007812 161.425781 159.792969 C 160.855469 160.574219 160.253906 161.351562 159.609375 162.121094 C 158.96875 162.890625 158.292969 163.648438 157.582031 164.398438 C 156.871094 165.148438 156.128906 165.882812 155.359375 166.605469 C 154.585938 167.328125 153.789062 168.03125 152.964844 168.71875 C 152.136719 169.40625 151.289062 170.074219 150.417969 170.71875 C 149.546875 171.363281 148.65625 171.984375 147.746094 172.585938 C 146.839844 173.183594 145.914062 173.753906 144.976562 174.300781 C 144.039062 174.84375 143.09375 175.359375 142.136719 175.847656 C 141.179688 176.335938 140.214844 176.789062 139.246094 177.214844 C 138.28125 177.636719 137.3125 178.027344 136.34375 178.382812 C 135.371094 178.738281 134.40625 179.058594 133.445312 179.34375 C 132.484375 179.632812 131.535156 179.878906 130.589844 180.09375 C 129.648438 180.304688 128.714844 180.480469 127.800781 180.617188 C 126.882812 180.753906 125.984375 180.851562 125.101562 180.910156 C 124.21875 180.96875 123.359375 180.992188 122.519531 180.972656 C 121.683594 180.957031 120.871094 180.902344 120.085938 180.804688 C 119.300781 180.710938 118.542969 180.578125 117.816406 180.410156 C 117.089844 180.238281 116.394531 180.03125 115.734375 179.785156 C 115.074219 179.539062 114.453125 179.257812 113.863281 178.9375 C 113.277344 178.621094 112.730469 178.269531 112.21875 177.882812 C 111.710938 177.496094 111.242188 177.074219 110.816406 176.621094 C 110.394531 176.171875 110.011719 175.6875 109.671875 175.171875 C 109.335938 174.660156 109.042969 174.117188 108.792969 173.546875 C 108.546875 172.980469 108.347656 172.382812 108.191406 171.761719 C 108.039062 171.144531 107.929688 170.5 107.871094 169.835938 C 107.8125 169.167969 107.796875 168.484375 107.835938 167.78125 C 107.871094 167.078125 107.953125 166.359375 108.082031 165.625 C 108.210938 164.890625 108.390625 164.140625 108.613281 163.382812 C 108.835938 162.621094 109.105469 161.855469 109.421875 161.078125 C 109.738281 160.300781 110.097656 159.519531 110.5 158.734375 C 110.902344 157.949219 111.347656 157.160156 111.835938 156.371094 C 112.324219 155.582031 112.855469 154.796875 113.421875 154.015625 C 113.988281 153.230469 114.59375 152.457031 115.238281 151.6875 C 115.878906 150.917969 116.554688 150.15625 117.265625 149.40625 C 117.976562 148.65625 118.714844 147.921875 119.488281 147.199219 C 120.257812 146.480469 121.058594 145.773438 121.882812 145.085938 C 122.707031 144.398438 123.558594 143.734375 124.429688 143.089844 C 125.300781 142.441406 126.191406 141.820312 127.097656 141.222656 C 128.007812 140.625 128.929688 140.050781 129.867188 139.507812 C 130.804688 138.960938 131.753906 138.445312 132.710938 137.957031 C 133.667969 137.472656 134.632812 137.015625 135.597656 136.59375 C 136.566406 136.167969 137.535156 135.78125 138.503906 135.421875 C 139.472656 135.066406 140.4375 134.746094 141.398438 134.460938 C 142.359375 134.175781 143.3125 133.925781 144.257812 133.714844 C 145.199219 133.5 146.128906 133.328125 147.046875 133.191406 C 147.964844 133.054688 148.863281 132.957031 149.746094 132.894531 C 150.628906 132.835938 151.488281 132.8125 152.324219 132.832031 C 153.164062 132.847656 153.976562 132.90625 154.761719 133 C 155.546875 133.09375 156.304688 133.226562 157.03125 133.398438 C 157.757812 133.570312 158.449219 133.777344 159.109375 134.023438 C 159.769531 134.269531 160.394531 134.550781 160.980469 134.867188 C 161.570312 135.183594 162.117188 135.539062 162.625 135.925781 C 163.136719 136.3125 163.601562 136.730469 164.027344 137.183594 C 164.453125 137.636719 164.835938 138.121094 165.171875 138.632812 Z M 165.171875 138.632812 " fill-opacity="1" fill-rule="nonzero"/><path fill="#ffdfbf" d="M 194.96875 197.042969 C 195.921875 197.082031 196.875 197.136719 197.824219 197.210938 C 198.769531 197.285156 199.710938 197.375 200.644531 197.484375 C 201.578125 197.59375 202.5 197.71875 203.40625 197.863281 C 204.316406 198.003906 205.210938 198.164062 206.085938 198.335938 C 206.960938 198.511719 207.816406 198.699219 208.652344 198.90625 C 209.484375 199.109375 210.296875 199.328125 211.082031 199.5625 C 211.867188 199.792969 212.625 200.039062 213.351562 200.300781 C 214.078125 200.558594 214.777344 200.832031 215.441406 201.113281 C 216.105469 201.394531 216.734375 201.691406 217.328125 201.992188 C 217.921875 202.296875 218.476562 202.609375 218.996094 202.933594 C 219.515625 203.253906 219.992188 203.585938 220.429688 203.921875 C 220.863281 204.257812 221.257812 204.601562 221.609375 204.949219 C 221.960938 205.296875 222.269531 205.652344 222.53125 206.007812 C 222.796875 206.363281 223.011719 206.722656 223.183594 207.085938 C 223.355469 207.449219 223.480469 207.808594 223.558594 208.171875 C 223.640625 208.535156 223.671875 208.898438 223.65625 209.261719 C 223.640625 209.621094 223.582031 209.980469 223.472656 210.335938 C 223.363281 210.691406 223.210938 211.042969 223.007812 211.390625 C 222.808594 211.734375 222.5625 212.074219 222.269531 212.410156 C 221.980469 212.746094 221.644531 213.070312 221.265625 213.390625 C 220.886719 213.707031 220.464844 214.019531 220.003906 214.320312 C 219.539062 214.617188 219.039062 214.90625 218.496094 215.1875 C 217.953125 215.464844 217.375 215.730469 216.757812 215.988281 C 216.140625 216.242188 215.488281 216.480469 214.804688 216.710938 C 214.117188 216.9375 213.402344 217.152344 212.65625 217.351562 C 211.90625 217.550781 211.132812 217.734375 210.332031 217.902344 C 209.53125 218.070312 208.707031 218.222656 207.855469 218.355469 C 207.007812 218.492188 206.140625 218.613281 205.253906 218.714844 C 204.367188 218.816406 203.464844 218.902344 202.546875 218.96875 C 201.628906 219.035156 200.699219 219.085938 199.761719 219.117188 C 198.820312 219.152344 197.878906 219.164062 196.925781 219.160156 C 195.976562 219.15625 195.023438 219.136719 194.066406 219.097656 C 193.113281 219.058594 192.160156 219.003906 191.214844 218.929688 C 190.265625 218.855469 189.324219 218.761719 188.390625 218.652344 C 187.457031 218.546875 186.539062 218.417969 185.628906 218.277344 C 184.71875 218.136719 183.828125 217.976562 182.953125 217.804688 C 182.074219 217.628906 181.21875 217.4375 180.386719 217.234375 C 179.550781 217.03125 178.742188 216.8125 177.957031 216.578125 C 177.171875 216.34375 176.414062 216.097656 175.683594 215.839844 C 174.957031 215.578125 174.261719 215.308594 173.597656 215.027344 C 172.929688 214.742188 172.300781 214.449219 171.707031 214.144531 C 171.113281 213.839844 170.558594 213.527344 170.039062 213.207031 C 169.523438 212.882812 169.046875 212.554688 168.609375 212.21875 C 168.171875 211.882812 167.777344 211.539062 167.425781 211.191406 C 167.074219 210.839844 166.765625 210.488281 166.503906 210.132812 C 166.242188 209.773438 166.023438 209.414062 165.851562 209.054688 C 165.679688 208.691406 165.554688 208.328125 165.476562 207.964844 C 165.398438 207.601562 165.367188 207.238281 165.378906 206.878906 C 165.394531 206.519531 165.457031 206.160156 165.566406 205.804688 C 165.671875 205.449219 165.828125 205.097656 166.027344 204.75 C 166.230469 204.402344 166.472656 204.0625 166.765625 203.730469 C 167.058594 203.394531 167.390625 203.066406 167.769531 202.75 C 168.148438 202.429688 168.570312 202.121094 169.03125 201.820312 C 169.496094 201.519531 170 201.230469 170.542969 200.953125 C 171.082031 200.675781 171.664062 200.40625 172.28125 200.152344 C 172.898438 199.898438 173.546875 199.65625 174.234375 199.429688 C 174.917969 199.203125 175.632812 198.988281 176.382812 198.789062 C 177.128906 198.589844 177.902344 198.40625 178.703125 198.238281 C 179.507812 198.070312 180.332031 197.917969 181.179688 197.78125 C 182.027344 197.644531 182.898438 197.527344 183.785156 197.425781 C 184.671875 197.324219 185.574219 197.238281 186.492188 197.171875 C 187.410156 197.101562 188.335938 197.054688 189.277344 197.019531 C 190.214844 196.988281 191.160156 196.972656 192.109375 196.976562 C 193.0625 196.980469 194.015625 197.003906 194.96875 197.042969 Z M 194.96875 197.042969 " fill-opacity="1" fill-rule="nonzero"/><path fill="#ffdfbf" d="M 144.167969 197.050781 C 145.125 197.089844 146.074219 197.144531 147.023438 197.21875 C 147.972656 197.292969 148.914062 197.382812 149.847656 197.492188 C 150.777344 197.601562 151.699219 197.726562 152.609375 197.871094 C 153.519531 198.011719 154.410156 198.171875 155.285156 198.34375 C 156.164062 198.519531 157.015625 198.707031 157.851562 198.914062 C 158.6875 199.117188 159.496094 199.335938 160.28125 199.570312 C 161.066406 199.800781 161.824219 200.046875 162.550781 200.308594 C 163.28125 200.566406 163.976562 200.839844 164.640625 201.121094 C 165.304688 201.402344 165.933594 201.699219 166.527344 202 C 167.125 202.304688 167.679688 202.617188 168.195312 202.941406 C 168.714844 203.261719 169.191406 203.59375 169.628906 203.929688 C 170.066406 204.265625 170.460938 204.609375 170.8125 204.957031 C 171.164062 205.304688 171.46875 205.660156 171.734375 206.015625 C 171.996094 206.371094 172.214844 206.730469 172.386719 207.09375 C 172.558594 207.457031 172.683594 207.816406 172.761719 208.179688 C 172.839844 208.542969 172.871094 208.90625 172.855469 209.269531 C 172.84375 209.628906 172.78125 209.988281 172.671875 210.34375 C 172.566406 210.699219 172.410156 211.050781 172.210938 211.398438 C 172.007812 211.742188 171.761719 212.082031 171.472656 212.417969 C 171.179688 212.753906 170.847656 213.078125 170.46875 213.398438 C 170.089844 213.714844 169.667969 214.027344 169.203125 214.324219 C 168.742188 214.625 168.238281 214.914062 167.695312 215.195312 C 167.152344 215.472656 166.574219 215.738281 165.957031 215.992188 C 165.339844 216.25 164.691406 216.488281 164.003906 216.71875 C 163.320312 216.945312 162.601562 217.160156 161.855469 217.359375 C 161.109375 217.558594 160.335938 217.742188 159.53125 217.910156 C 158.730469 218.078125 157.90625 218.230469 157.058594 218.363281 C 156.207031 218.5 155.339844 218.621094 154.453125 218.722656 C 153.566406 218.824219 152.664062 218.910156 151.746094 218.976562 C 150.828125 219.042969 149.902344 219.09375 148.960938 219.125 C 148.023438 219.160156 147.078125 219.171875 146.125 219.167969 C 145.175781 219.164062 144.222656 219.144531 143.269531 219.105469 C 142.3125 219.066406 141.363281 219.011719 140.414062 218.9375 C 139.464844 218.863281 138.527344 218.769531 137.59375 218.660156 C 136.660156 218.554688 135.738281 218.425781 134.828125 218.285156 C 133.921875 218.144531 133.027344 217.984375 132.152344 217.808594 C 131.277344 217.636719 130.421875 217.445312 129.585938 217.242188 C 128.75 217.039062 127.941406 216.820312 127.15625 216.585938 C 126.371094 216.351562 125.613281 216.105469 124.886719 215.847656 C 124.15625 215.585938 123.460938 215.316406 122.796875 215.035156 C 122.132812 214.75 121.503906 214.457031 120.910156 214.152344 C 120.316406 213.847656 119.757812 213.535156 119.242188 213.214844 C 118.722656 212.890625 118.246094 212.5625 117.808594 212.226562 C 117.371094 211.890625 116.976562 211.546875 116.625 211.199219 C 116.273438 210.847656 115.96875 210.496094 115.703125 210.140625 C 115.441406 209.78125 115.226562 209.421875 115.054688 209.0625 C 114.882812 208.699219 114.757812 208.335938 114.675781 207.972656 C 114.597656 207.609375 114.566406 207.246094 114.582031 206.886719 C 114.597656 206.527344 114.65625 206.167969 114.765625 205.8125 C 114.875 205.457031 115.027344 205.105469 115.230469 204.757812 C 115.429688 204.410156 115.675781 204.070312 115.964844 203.738281 C 116.257812 203.402344 116.59375 203.074219 116.972656 202.757812 C 117.351562 202.4375 117.769531 202.128906 118.234375 201.828125 C 118.695312 201.527344 119.199219 201.238281 119.742188 200.960938 C 120.285156 200.683594 120.863281 200.414062 121.480469 200.160156 C 122.097656 199.90625 122.75 199.664062 123.433594 199.4375 C 124.121094 199.210938 124.835938 198.996094 125.582031 198.796875 C 126.328125 198.597656 127.105469 198.414062 127.90625 198.246094 C 128.707031 198.078125 129.53125 197.925781 130.382812 197.789062 C 131.230469 197.652344 132.097656 197.535156 132.984375 197.433594 C 133.871094 197.332031 134.773438 197.246094 135.691406 197.179688 C 136.609375 197.109375 137.539062 197.0625 138.476562 197.027344 C 139.414062 196.996094 140.359375 196.980469 141.3125 196.984375 C 142.261719 196.988281 143.214844 197.011719 144.167969 197.050781 Z M 144.167969 197.050781 " fill-opacity="1" fill-rule="nonzero"/><path fill="#474747" d="M 185.9375 76.136719 C 142.5 75.574219 121.0625 104.273438 114.875 147.949219 C 122.8125 126.386719 140.0625 124.460938 173.050781 123.9375 C 236.9375 122.925781 253.050781 131.4375 245.085938 211.261719 C 243.414062 228.085938 239.5625 233.523438 219.4375 247.199219 C 208.523438 254.625 236.210938 223.351562 174.4375 222.8125 C 129.675781 222.425781 147.25 255.738281 138.1875 249.4375 C 130.949219 244.285156 124.832031 238.035156 119.835938 230.6875 C 131.5 267.550781 156.710938 293.085938 185.9375 293.085938 C 219.6875 293.085938 248.0625 259.085938 256.4375 212.886719 L 258.9375 177.710938 C 258.9375 117.824219 259.625 77.101562 185.9375 76.136719 Z M 185.9375 76.136719 " fill-opacity="1" fill-rule="evenodd"/><path fill="#000000" d="M 184.675781 76.136719 L 185.925781 76.136719 C 259.613281 77.101562 258.925781 117.824219 258.925781 177.726562 C 258.925781 182.386719 266.511719 181.175781 265.8125 194.949219 C 263.75 212.449219 257.273438 208.175781 256.425781 212.898438 C 248.050781 259.148438 219.664062 293.101562 185.925781 293.101562 C 151.761719 293.101562 123.085938 258.25 115.125 211.175781 C 114.375 206.789062 109.8125 210.449219 109.3125 194.273438 C 108.0625 179.449219 112.914062 182.164062 112.914062 177.726562 C 112.914062 118.300781 132.914062 76.136719 184.664062 76.136719 M 184.664062 67.386719 C 156.875 67.386719 135.789062 78.335938 122.011719 99.886719 C 110.363281 118.136719 104.363281 143.761719 104.175781 176.136719 C 101.3125 179.886719 99.773438 184.710938 100.574219 194.773438 C 100.949219 205.925781 103.210938 210.738281 106.824219 214.226562 C 116.085938 265.914062 148.476562 301.863281 185.976562 301.863281 C 204.726562 301.863281 222.949219 292.699219 237.351562 276.0625 C 250.449219 260.9375 260.101562 239.925781 264.664062 216.699219 C 271.375 212 273.5 204.988281 274.5625 195.988281 L 274.5625 195.398438 C 275.101562 184.613281 271.648438 179.425781 267.675781 175.613281 C 267.675781 145.613281 267.675781 119.601562 257.5625 100.3125 C 246.113281 78.351562 223.386719 67.886719 186.039062 67.398438 Z M 184.664062 67.386719 " fill-opacity="1" fill-rule="nonzero"/><path fill="#474747" d="M 159.511719 213.113281 C 159.511719 213.113281 163.386719 216.988281 171.136719 216.6875 C 178.886719 216.386719 182.449219 211.925781 182.449219 211.925781 C 182.449219 211.925781 179.175781 219.425781 172.023438 219.960938 C 164.875 220.5 159.511719 213.113281 159.511719 213.113281 Z M 159.511719 213.113281 " fill-opacity="1" fill-rule="evenodd"/><path fill="#000000" d="M 152.175781 255.800781 C 152.246094 255.082031 152.386719 254.378906 152.601562 253.6875 C 152.824219 253.015625 153.089844 252.355469 153.386719 251.710938 C 154.003906 250.421875 154.761719 249.222656 155.664062 248.113281 C 157.511719 245.886719 159.699219 244.066406 162.226562 242.648438 C 164.722656 241.242188 167.375 240.222656 170.175781 239.601562 C 170.863281 239.449219 171.550781 239.351562 172.238281 239.238281 C 172.925781 239.109375 173.617188 239.019531 174.3125 238.960938 C 175.699219 238.886719 177.085938 238.761719 178.460938 238.824219 C 181.257812 238.875 184.003906 239.273438 186.699219 240.027344 C 189.390625 240.78125 191.945312 241.863281 194.363281 243.273438 C 196.769531 244.691406 198.898438 246.445312 200.75 248.539062 C 201.671875 249.574219 202.480469 250.6875 203.175781 251.886719 C 203.511719 252.511719 203.851562 253.136719 204.136719 253.738281 C 204.410156 254.390625 204.636719 255.0625 204.8125 255.75 L 204.25 256.238281 C 202.546875 254.574219 200.664062 253.148438 198.601562 251.960938 C 196.566406 250.71875 194.433594 249.6875 192.199219 248.863281 C 187.703125 247.214844 183.0625 246.382812 178.273438 246.363281 C 173.492188 246.125 168.832031 246.777344 164.300781 248.324219 C 162.085938 249.117188 160 250.171875 158.050781 251.488281 C 156.046875 252.765625 154.324219 254.34375 152.875 256.226562 Z M 152.175781 255.800781 " fill-opacity="1" fill-rule="nonzero"/></svg>