<svg xmlns="http://www.w3.org/2000/svg" xmlns:xlink="http://www.w3.org/1999/xlink" width="500" zoomAndPan="magnify" viewBox="0 0 375 374.999991" height="500" preserveAspectRatio="xMidYMid meet" version="1.0"><defs><clipPath id="5c022a9504"><path d="M 6.695312 0 L 368.195312 0 L 368.195312 361.5 L 6.695312 361.5 Z M 6.695312 0 " clip-rule="nonzero"/></clipPath></defs><path fill="#104a87" d="M 172.652344 55.117188 C 171.476562 54.667969 170.261719 54.402344 169.003906 54.324219 C 167.75 54.242188 166.511719 54.347656 165.289062 54.644531 C 164.066406 54.9375 162.914062 55.40625 161.832031 56.050781 C 160.75 56.695312 159.789062 57.484375 158.949219 58.417969 L 106.566406 116.59375 L 62.28125 116.59375 C 61.460938 116.59375 60.652344 116.675781 59.847656 116.835938 C 59.046875 116.992188 58.269531 117.230469 57.511719 117.542969 C 56.757812 117.855469 56.039062 118.238281 55.359375 118.695312 C 54.679688 119.148438 54.050781 119.664062 53.472656 120.242188 C 52.890625 120.820312 52.375 121.449219 51.921875 122.132812 C 51.46875 122.8125 51.082031 123.527344 50.769531 124.285156 C 50.457031 125.039062 50.222656 125.820312 50.0625 126.621094 C 49.902344 127.425781 49.820312 128.234375 49.820312 129.050781 L 49.820312 234.941406 C 49.820312 235.757812 49.902344 236.566406 50.0625 237.371094 C 50.222656 238.171875 50.457031 238.949219 50.769531 239.707031 C 51.082031 240.460938 51.46875 241.179688 51.921875 241.859375 C 52.375 242.539062 52.890625 243.167969 53.472656 243.75 C 54.050781 244.328125 54.679688 244.84375 55.359375 245.296875 C 56.039062 245.75 56.757812 246.136719 57.511719 246.449219 C 58.269531 246.761719 59.046875 246.996094 59.847656 247.15625 C 60.652344 247.316406 61.460938 247.398438 62.28125 247.398438 L 106.9375 247.398438 L 159.320312 299.78125 C 160.191406 300.65625 161.167969 301.386719 162.257812 301.972656 C 163.34375 302.558594 164.492188 302.972656 165.703125 303.21875 C 166.910156 303.464844 168.132812 303.527344 169.359375 303.40625 C 170.589844 303.289062 171.773438 302.996094 172.914062 302.523438 C 174.054688 302.054688 175.105469 301.425781 176.058594 300.644531 C 177.015625 299.863281 177.835938 298.960938 178.523438 297.933594 C 179.207031 296.90625 179.730469 295.804688 180.089844 294.621094 C 180.445312 293.441406 180.625 292.230469 180.625 290.996094 L 180.625 66.765625 C 180.625 65.503906 180.441406 64.273438 180.070312 63.070312 C 179.699219 61.863281 179.160156 60.742188 178.445312 59.703125 C 177.734375 58.664062 176.886719 57.753906 175.898438 56.972656 C 174.910156 56.1875 173.828125 55.570312 172.652344 55.117188 Z M 155.710938 260.914062 L 120.890625 226.09375 C 119.722656 224.9375 118.378906 224.042969 116.859375 223.417969 C 115.335938 222.792969 113.753906 222.480469 112.109375 222.480469 L 74.738281 222.480469 L 74.738281 141.507812 L 112.109375 141.507812 C 113.878906 141.515625 115.570312 141.160156 117.1875 140.441406 C 118.804688 139.726562 120.203125 138.710938 121.390625 137.398438 L 155.710938 99.214844 L 155.710938 261.164062 Z M 155.710938 260.914062 " fill-opacity="1" fill-rule="nonzero"/><path fill="#104a87" d="M 252.503906 91.679688 C 251.921875 91.101562 251.292969 90.585938 250.609375 90.132812 C 249.925781 89.679688 249.207031 89.300781 248.449219 88.988281 C 247.691406 88.675781 246.910156 88.441406 246.109375 88.285156 C 245.304688 88.128906 244.492188 88.050781 243.675781 88.050781 C 242.855469 88.054688 242.042969 88.136719 241.242188 88.300781 C 240.4375 88.460938 239.660156 88.699219 238.90625 89.015625 C 238.148438 89.332031 237.433594 89.71875 236.753906 90.175781 C 236.074219 90.632812 235.445312 91.152344 234.867188 91.734375 C 234.289062 92.316406 233.777344 92.945312 233.324219 93.628906 C 232.871094 94.3125 232.488281 95.03125 232.179688 95.789062 C 231.867188 96.546875 231.636719 97.328125 231.476562 98.132812 C 231.320312 98.9375 231.246094 99.746094 231.25 100.566406 C 231.25 101.386719 231.335938 102.195312 231.496094 103 C 231.660156 103.800781 231.902344 104.578125 232.21875 105.335938 C 232.535156 106.089844 232.921875 106.808594 233.378906 107.488281 C 233.835938 108.164062 234.355469 108.792969 234.9375 109.371094 C 236.085938 110.507812 237.207031 111.671875 238.300781 112.867188 C 239.390625 114.0625 240.453125 115.28125 241.484375 116.527344 C 242.515625 117.773438 243.515625 119.042969 244.484375 120.339844 C 245.453125 121.632812 246.390625 122.953125 247.292969 124.292969 C 248.195312 125.636719 249.066406 127 249.902344 128.382812 C 250.738281 129.765625 251.539062 131.171875 252.304688 132.597656 C 253.074219 134.019531 253.804688 135.460938 254.5 136.921875 C 255.195312 138.382812 255.855469 139.859375 256.476562 141.351562 C 257.101562 142.84375 257.683594 144.351562 258.234375 145.875 C 258.78125 147.394531 259.292969 148.929688 259.765625 150.476562 C 260.238281 152.023438 260.671875 153.582031 261.066406 155.152344 C 261.460938 156.71875 261.816406 158.296875 262.136719 159.882812 C 262.453125 161.46875 262.730469 163.0625 262.96875 164.660156 C 263.207031 166.261719 263.40625 167.863281 263.566406 169.476562 C 263.726562 171.085938 263.847656 172.695312 263.925781 174.3125 C 264.003906 175.929688 264.046875 177.542969 264.046875 179.160156 C 264.046875 180.777344 264.003906 182.394531 263.925781 184.011719 C 263.847656 185.625 263.726562 187.238281 263.566406 188.847656 C 263.40625 190.457031 263.207031 192.0625 262.96875 193.664062 C 262.730469 195.261719 262.453125 196.855469 262.136719 198.441406 C 261.816406 200.027344 261.460938 201.605469 261.066406 203.171875 C 260.671875 204.742188 260.238281 206.300781 259.765625 207.847656 C 259.292969 209.394531 258.78125 210.925781 258.234375 212.449219 C 257.683594 213.972656 257.101562 215.476562 256.476562 216.972656 C 255.855469 218.464844 255.195312 219.941406 254.5 221.402344 C 253.804688 222.859375 253.074219 224.304688 252.304688 225.726562 C 251.539062 227.152344 250.738281 228.554688 249.902344 229.941406 C 249.066406 231.324219 248.195312 232.6875 247.292969 234.03125 C 246.390625 235.371094 245.453125 236.691406 244.484375 237.984375 C 243.515625 239.28125 242.515625 240.550781 241.484375 241.796875 C 240.453125 243.042969 239.390625 244.261719 238.300781 245.457031 C 237.207031 246.648438 236.085938 247.816406 234.9375 248.953125 C 234.570312 249.21875 234.21875 249.503906 233.878906 249.804688 C 233.542969 250.109375 233.222656 250.429688 232.921875 250.769531 C 232.617188 251.105469 232.335938 251.460938 232.070312 251.828125 C 231.808594 252.195312 231.566406 252.578125 231.34375 252.976562 C 231.121094 253.371094 230.921875 253.777344 230.742188 254.195312 C 230.566406 254.613281 230.410156 255.039062 230.28125 255.472656 C 230.148438 255.90625 230.042969 256.347656 229.960938 256.792969 C 229.875 257.238281 229.816406 257.6875 229.785156 258.140625 C 229.75 258.589844 229.742188 259.042969 229.757812 259.496094 C 229.773438 259.949219 229.8125 260.402344 229.875 260.851562 C 229.941406 261.300781 230.03125 261.742188 230.144531 262.183594 C 230.257812 262.621094 230.394531 263.054688 230.554688 263.476562 C 230.714844 263.902344 230.898438 264.316406 231.101562 264.71875 C 231.308594 265.125 231.535156 265.515625 231.785156 265.894531 C 232.03125 266.273438 232.300781 266.640625 232.589844 266.988281 C 232.878906 267.339844 233.183594 267.671875 233.507812 267.988281 C 233.832031 268.308594 234.175781 268.605469 234.53125 268.882812 C 234.890625 269.164062 235.261719 269.421875 235.644531 269.660156 C 236.03125 269.902344 236.429688 270.117188 236.839844 270.3125 C 237.246094 270.507812 237.667969 270.679688 238.09375 270.832031 C 238.523438 270.980469 238.957031 271.105469 239.398438 271.207031 C 239.839844 271.3125 240.289062 271.386719 240.738281 271.441406 C 241.1875 271.496094 241.640625 271.523438 242.09375 271.527344 C 242.546875 271.53125 243 271.511719 243.449219 271.464844 C 243.902344 271.421875 244.351562 271.351562 244.792969 271.257812 C 245.238281 271.164062 245.675781 271.046875 246.105469 270.902344 C 246.535156 270.761719 246.957031 270.597656 247.371094 270.410156 C 247.78125 270.21875 248.183594 270.011719 248.574219 269.777344 C 248.964844 269.546875 249.339844 269.292969 249.703125 269.019531 C 250.0625 268.75 250.410156 268.457031 250.742188 268.144531 C 251.070312 267.835938 251.382812 267.507812 251.679688 267.164062 C 251.972656 266.816406 252.246094 266.457031 252.503906 266.082031 C 253.933594 264.65625 255.328125 263.199219 256.683594 261.703125 C 258.042969 260.210938 259.363281 258.683594 260.644531 257.125 C 261.929688 255.5625 263.171875 253.976562 264.378906 252.355469 C 265.582031 250.734375 266.746094 249.085938 267.871094 247.40625 C 268.992188 245.730469 270.074219 244.027344 271.113281 242.296875 C 272.15625 240.5625 273.152344 238.808594 274.105469 237.03125 C 275.058594 235.25 275.96875 233.449219 276.832031 231.621094 C 277.695312 229.796875 278.515625 227.953125 279.289062 226.089844 C 280.0625 224.222656 280.792969 222.339844 281.472656 220.441406 C 282.15625 218.539062 282.789062 216.625 283.375 214.691406 C 283.964844 212.761719 284.503906 210.816406 284.992188 208.855469 C 285.484375 206.898438 285.929688 204.929688 286.324219 202.949219 C 286.71875 200.96875 287.0625 198.980469 287.359375 196.984375 C 287.65625 194.988281 287.90625 192.984375 288.101562 190.972656 C 288.300781 188.964844 288.449219 186.953125 288.550781 184.933594 C 288.648438 182.917969 288.699219 180.902344 288.699219 178.882812 C 288.699219 176.863281 288.648438 174.84375 288.550781 172.828125 C 288.449219 170.8125 288.300781 168.796875 288.101562 166.789062 C 287.90625 164.78125 287.65625 162.777344 287.359375 160.78125 C 287.0625 158.78125 286.71875 156.792969 286.324219 154.8125 C 285.929688 152.832031 285.484375 150.863281 284.992188 148.90625 C 284.503906 146.949219 283.964844 145.003906 283.375 143.070312 C 282.789062 141.140625 282.15625 139.222656 281.472656 137.320312 C 280.792969 135.421875 280.0625 133.539062 279.289062 131.675781 C 278.515625 129.808594 277.695312 127.964844 276.832031 126.140625 C 275.96875 124.316406 275.058594 122.511719 274.105469 120.734375 C 273.152344 118.953125 272.15625 117.199219 271.113281 115.46875 C 270.074219 113.738281 268.992188 112.03125 267.871094 110.355469 C 266.746094 108.679688 265.582031 107.027344 264.378906 105.410156 C 263.171875 103.789062 261.929688 102.199219 260.644531 100.640625 C 259.363281 99.082031 258.042969 97.554688 256.683594 96.058594 C 255.328125 94.566406 253.933594 93.105469 252.503906 91.679688 Z M 252.503906 91.679688 " fill-opacity="1" fill-rule="nonzero"/><path fill="#104a87" d="M 286.011719 58.167969 C 285.445312 57.546875 284.820312 56.984375 284.140625 56.488281 C 283.457031 55.988281 282.734375 55.566406 281.964844 55.214844 C 281.199219 54.867188 280.402344 54.597656 279.582031 54.410156 C 278.757812 54.21875 277.925781 54.117188 277.082031 54.097656 C 276.238281 54.078125 275.402344 54.144531 274.570312 54.292969 C 273.742188 54.445312 272.933594 54.675781 272.152344 54.992188 C 271.367188 55.308594 270.625 55.695312 269.921875 56.164062 C 269.21875 56.628906 268.566406 57.160156 267.972656 57.757812 C 267.378906 58.355469 266.847656 59.007812 266.382812 59.710938 C 265.921875 60.417969 265.535156 61.160156 265.222656 61.945312 C 264.910156 62.730469 264.679688 63.539062 264.53125 64.367188 C 264.382812 65.199219 264.320312 66.035156 264.34375 66.878906 C 264.367188 67.722656 264.472656 68.554688 264.664062 69.378906 C 264.855469 70.199219 265.128906 70.992188 265.480469 71.757812 C 265.832031 72.527344 266.261719 73.25 266.757812 73.929688 C 267.257812 74.609375 267.824219 75.230469 268.449219 75.796875 C 270.144531 77.476562 271.800781 79.199219 273.410156 80.960938 C 275.023438 82.722656 276.589844 84.527344 278.113281 86.367188 C 279.632812 88.207031 281.109375 90.082031 282.539062 91.996094 C 283.96875 93.90625 285.351562 95.855469 286.6875 97.835938 C 288.019531 99.816406 289.304688 101.828125 290.539062 103.875 C 291.773438 105.917969 292.957031 107.992188 294.085938 110.09375 C 295.21875 112.199219 296.296875 114.328125 297.324219 116.484375 C 298.351562 118.640625 299.324219 120.820312 300.242188 123.023438 C 301.164062 125.230469 302.027344 127.453125 302.835938 129.699219 C 303.644531 131.949219 304.398438 134.214844 305.097656 136.496094 C 305.792969 138.78125 306.433594 141.082031 307.015625 143.398438 C 307.601562 145.714844 308.125 148.042969 308.59375 150.382812 C 309.0625 152.726562 309.476562 155.078125 309.828125 157.441406 C 310.179688 159.800781 310.472656 162.171875 310.710938 164.546875 C 310.945312 166.925781 311.121094 169.304688 311.238281 171.691406 C 311.355469 174.074219 311.414062 176.460938 311.414062 178.851562 C 311.414062 181.238281 311.355469 183.625 311.238281 186.011719 C 311.121094 188.394531 310.945312 190.777344 310.710938 193.152344 C 310.472656 195.53125 310.179688 197.898438 309.828125 200.261719 C 309.476562 202.625 309.0625 204.976562 308.59375 207.316406 C 308.125 209.660156 307.601562 211.988281 307.015625 214.304688 C 306.433594 216.617188 305.792969 218.917969 305.097656 221.203125 C 304.398438 223.488281 303.644531 225.753906 302.835938 228 C 302.027344 230.246094 301.164062 232.472656 300.242188 234.675781 C 299.324219 236.878906 298.351562 239.0625 297.324219 241.21875 C 296.296875 243.375 295.21875 245.503906 294.085938 247.605469 C 292.957031 249.707031 291.773438 251.78125 290.539062 253.828125 C 289.304688 255.871094 288.019531 257.882812 286.6875 259.867188 C 285.351562 261.847656 283.96875 263.792969 282.539062 265.707031 C 281.109375 267.617188 279.632812 269.496094 278.113281 271.335938 C 276.589844 273.175781 275.023438 274.976562 273.410156 276.738281 C 271.800781 278.5 270.144531 280.222656 268.449219 281.902344 C 267.867188 282.480469 267.347656 283.109375 266.890625 283.789062 C 266.433594 284.464844 266.046875 285.183594 265.730469 285.9375 C 265.417969 286.691406 265.175781 287.472656 265.015625 288.273438 C 264.851562 289.074219 264.769531 289.886719 264.765625 290.703125 C 264.765625 291.523438 264.839844 292.332031 264.996094 293.136719 C 265.15625 293.941406 265.386719 294.71875 265.699219 295.476562 C 266.007812 296.234375 266.390625 296.953125 266.84375 297.636719 C 267.296875 298.320312 267.808594 298.949219 268.386719 299.53125 C 268.964844 300.113281 269.589844 300.628906 270.269531 301.085938 C 270.949219 301.542969 271.664062 301.929688 272.421875 302.246094 C 273.175781 302.5625 273.953125 302.800781 274.757812 302.964844 C 275.558594 303.128906 276.367188 303.210938 277.1875 303.210938 C 278.003906 303.214844 278.816406 303.140625 279.621094 302.980469 C 280.421875 302.824219 281.203125 302.589844 281.960938 302.28125 C 282.71875 301.96875 283.4375 301.589844 284.121094 301.136719 C 284.800781 300.683594 285.433594 300.171875 286.011719 299.59375 C 288 297.625 289.9375 295.605469 291.824219 293.542969 C 293.710938 291.476562 295.542969 289.367188 297.328125 287.210938 C 299.109375 285.054688 300.839844 282.859375 302.511719 280.617188 C 304.1875 278.375 305.804688 276.09375 307.367188 273.773438 C 308.925781 271.453125 310.429688 269.097656 311.875 266.699219 C 313.320312 264.304688 314.707031 261.878906 316.03125 259.414062 C 317.355469 256.949219 318.621094 254.457031 319.824219 251.929688 C 321.023438 249.40625 322.164062 246.851562 323.238281 244.269531 C 324.316406 241.6875 325.328125 239.078125 326.273438 236.449219 C 327.222656 233.816406 328.101562 231.164062 328.917969 228.488281 C 329.734375 225.8125 330.484375 223.117188 331.167969 220.40625 C 331.851562 217.691406 332.46875 214.964844 333.015625 212.222656 C 333.566406 209.480469 334.046875 206.726562 334.460938 203.957031 C 334.871094 201.191406 335.214844 198.417969 335.492188 195.632812 C 335.765625 192.851562 335.972656 190.0625 336.113281 187.269531 C 336.25 184.472656 336.320312 181.679688 336.320312 178.882812 C 336.320312 176.085938 336.25 173.289062 336.113281 170.496094 C 335.972656 167.703125 335.765625 164.914062 335.492188 162.128906 C 335.214844 159.347656 334.871094 156.570312 334.460938 153.804688 C 334.046875 151.039062 333.566406 148.28125 333.015625 145.539062 C 332.46875 142.796875 331.851562 140.070312 331.167969 137.359375 C 330.484375 134.644531 329.734375 131.949219 328.917969 129.277344 C 328.101562 126.601562 327.222656 123.945312 326.273438 121.316406 C 325.328125 118.683594 324.316406 116.074219 323.238281 113.496094 C 322.164062 110.914062 321.023438 108.359375 319.824219 105.832031 C 318.621094 103.308594 317.355469 100.8125 316.03125 98.347656 C 314.707031 95.886719 313.320312 93.457031 311.875 91.0625 C 310.429688 88.667969 308.925781 86.308594 307.367188 83.988281 C 305.804688 81.667969 304.1875 79.386719 302.511719 77.144531 C 300.839844 74.90625 299.109375 72.707031 297.328125 70.550781 C 295.542969 68.394531 293.710938 66.285156 291.824219 64.222656 C 289.9375 62.15625 288 60.140625 286.011719 58.167969 Z M 286.011719 58.167969 " fill-opacity="1" fill-rule="nonzero"/><path fill="#104a87" d="M 217.375 126.3125 C 216.792969 125.734375 216.160156 125.21875 215.480469 124.769531 C 214.796875 124.316406 214.078125 123.933594 213.320312 123.625 C 212.5625 123.3125 211.78125 123.078125 210.980469 122.921875 C 210.175781 122.765625 209.367188 122.6875 208.546875 122.691406 C 207.730469 122.695312 206.917969 122.777344 206.117188 122.941406 C 205.3125 123.101562 204.535156 123.339844 203.78125 123.65625 C 203.027344 123.972656 202.308594 124.359375 201.628906 124.816406 C 200.949219 125.273438 200.324219 125.792969 199.746094 126.375 C 199.167969 126.953125 198.65625 127.585938 198.203125 128.269531 C 197.75 128.949219 197.371094 129.667969 197.058594 130.425781 C 196.75 131.183594 196.515625 131.964844 196.359375 132.769531 C 196.199219 133.570312 196.125 134.382812 196.125 135.199219 C 196.128906 136.019531 196.210938 136.828125 196.375 137.632812 C 196.539062 138.433594 196.777344 139.210938 197.09375 139.96875 C 197.410156 140.722656 197.792969 141.4375 198.25 142.117188 C 198.707031 142.796875 199.226562 143.425781 199.808594 144 C 200.957031 145.140625 202.050781 146.332031 203.082031 147.582031 C 204.113281 148.828125 205.082031 150.125 205.988281 151.46875 C 206.890625 152.808594 207.726562 154.195312 208.496094 155.621094 C 209.261719 157.046875 209.957031 158.507812 210.578125 160 C 211.203125 161.496094 211.75 163.015625 212.222656 164.566406 C 212.695312 166.113281 213.089844 167.679688 213.410156 169.269531 C 213.726562 170.855469 213.964844 172.457031 214.125 174.066406 C 214.285156 175.679688 214.363281 177.292969 214.363281 178.914062 C 214.363281 180.53125 214.285156 182.148438 214.125 183.757812 C 213.964844 185.371094 213.726562 186.96875 213.410156 188.554688 C 213.089844 190.144531 212.695312 191.710938 212.222656 193.261719 C 211.75 194.808594 211.203125 196.332031 210.578125 197.824219 C 209.957031 199.320312 209.261719 200.78125 208.496094 202.207031 C 207.726562 203.632812 206.890625 205.015625 205.988281 206.359375 C 205.082031 207.703125 204.113281 208.996094 203.082031 210.242188 C 202.050781 211.492188 200.957031 212.683594 199.808594 213.824219 C 199.226562 214.402344 198.707031 215.027344 198.25 215.707031 C 197.792969 216.386719 197.40625 217.105469 197.089844 217.859375 C 196.773438 218.613281 196.535156 219.390625 196.371094 220.195312 C 196.207031 220.996094 196.125 221.808594 196.121094 222.625 C 196.121094 223.445312 196.195312 224.257812 196.351562 225.058594 C 196.507812 225.863281 196.742188 226.644531 197.054688 227.402344 C 197.363281 228.160156 197.746094 228.878906 198.199219 229.5625 C 198.652344 230.242188 199.164062 230.875 199.742188 231.457031 C 200.320312 232.035156 200.945312 232.554688 201.625 233.011719 C 202.304688 233.46875 203.023438 233.855469 203.777344 234.171875 C 204.53125 234.488281 205.3125 234.726562 206.113281 234.890625 C 206.917969 235.050781 207.726562 235.136719 208.546875 235.136719 C 209.363281 235.140625 210.175781 235.0625 210.980469 234.90625 C 211.78125 234.75 212.5625 234.515625 213.320312 234.203125 C 214.078125 233.894531 214.796875 233.511719 215.480469 233.058594 C 216.160156 232.605469 216.792969 232.089844 217.375 231.515625 C 218.238281 230.65625 219.082031 229.777344 219.90625 228.878906 C 220.726562 227.976562 221.527344 227.058594 222.304688 226.117188 C 223.082031 225.179688 223.835938 224.222656 224.566406 223.246094 C 225.292969 222.269531 226 221.273438 226.679688 220.265625 C 227.359375 219.253906 228.015625 218.226562 228.644531 217.179688 C 229.277344 216.136719 229.878906 215.078125 230.457031 214.007812 C 231.035156 212.933594 231.585938 211.847656 232.109375 210.746094 C 232.632812 209.644531 233.128906 208.53125 233.597656 207.40625 C 234.066406 206.28125 234.507812 205.144531 234.921875 204 C 235.335938 202.851562 235.71875 201.695312 236.074219 200.53125 C 236.429688 199.363281 236.757812 198.191406 237.054688 197.007812 C 237.351562 195.824219 237.621094 194.636719 237.859375 193.441406 C 238.097656 192.246094 238.308594 191.046875 238.488281 189.839844 C 238.667969 188.636719 238.820312 187.425781 238.9375 186.214844 C 239.058594 185 239.148438 183.785156 239.210938 182.566406 C 239.269531 181.351562 239.300781 180.132812 239.300781 178.914062 C 239.300781 177.695312 239.269531 176.476562 239.210938 175.257812 C 239.148438 174.039062 239.058594 172.824219 238.9375 171.613281 C 238.820312 170.398438 238.667969 169.191406 238.488281 167.984375 C 238.308594 166.777344 238.097656 165.578125 237.859375 164.382812 C 237.621094 163.1875 237.351562 162 237.054688 160.816406 C 236.757812 159.636719 236.429688 158.460938 236.074219 157.296875 C 235.71875 156.128906 235.335938 154.972656 234.921875 153.828125 C 234.507812 152.679688 234.066406 151.542969 233.597656 150.417969 C 233.128906 149.292969 232.632812 148.179688 232.109375 147.082031 C 231.585938 145.980469 231.035156 144.890625 230.457031 143.820312 C 229.878906 142.746094 229.277344 141.6875 228.644531 140.644531 C 228.015625 139.601562 227.359375 138.574219 226.679688 137.5625 C 226 136.550781 225.292969 135.554688 224.566406 134.578125 C 223.835938 133.605469 223.082031 132.644531 222.304688 131.707031 C 221.527344 130.765625 220.726562 129.847656 219.90625 128.949219 C 219.082031 128.046875 218.238281 127.167969 217.375 126.3125 Z M 217.375 126.3125 " fill-opacity="1" fill-rule="nonzero"/><g clip-path="url(#5c022a9504)"><path fill="#039be7" d="M 187.5 0 C 87.621094 0 6.695312 80.996094 6.695312 180.800781 C 6.695312 280.609375 87.621094 361.605469 187.5 361.605469 C 287.378906 361.605469 368.300781 280.609375 368.300781 180.800781 C 368.300781 80.996094 287.378906 0 187.5 0 Z M 187.5 350.160156 C 93.964844 350.160156 18.140625 274.339844 18.140625 180.800781 C 18.140625 87.265625 93.964844 11.445312 187.5 11.445312 C 281.035156 11.445312 356.855469 87.265625 356.855469 180.800781 C 356.855469 274.339844 281.035156 350.160156 187.5 350.160156 Z M 187.5 350.160156 " fill-opacity="1" fill-rule="nonzero"/></g></svg>