<svg xmlns="http://www.w3.org/2000/svg" xmlns:xlink="http://www.w3.org/1999/xlink" width="500" zoomAndPan="magnify" viewBox="0 0 375 374.999991" height="500" preserveAspectRatio="xMidYMid meet" version="1.0"><path fill="#ffdfbf" d="M 112.21875 176.613281 C 112.21875 117.089844 132.417969 74.976562 184.773438 75.660156 C 258.003906 76.617188 257.320312 117.089844 257.320312 176.613281 C 257.320312 181.246094 264.859375 180.042969 264.164062 193.730469 C 262.113281 211.121094 255.679688 206.875 254.835938 211.570312 C 246.511719 257.53125 218.300781 291.269531 184.773438 291.269531 C 150.828125 291.269531 122.332031 256.636719 114.417969 209.855469 C 113.671875 205.496094 109.136719 209.132812 108.640625 193.0625 C 107.4375 178.328125 112.21875 181.023438 112.21875 176.613281 Z M 112.21875 176.613281 " fill-opacity="1" fill-rule="evenodd"/><path fill="#474747" d="M 184.773438 75.660156 C 141.609375 75.101562 120.304688 103.625 114.15625 147.023438 C 122.042969 125.597656 139.1875 123.683594 171.96875 123.164062 C 235.457031 122.15625 251.46875 130.617188 243.554688 209.941406 C 241.890625 226.660156 238.066406 232.066406 218.066406 245.65625 C 207.222656 253.035156 234.734375 221.953125 173.347656 221.421875 C 128.863281 221.035156 146.328125 254.140625 137.324219 247.878906 C 130.128906 242.757812 124.050781 236.546875 119.089844 229.246094 C 130.679688 265.878906 155.734375 291.253906 184.773438 291.253906 C 218.3125 291.253906 246.511719 257.46875 254.835938 211.558594 L 257.320312 176.601562 C 257.320312 117.089844 258.003906 76.617188 184.773438 75.660156 Z M 184.773438 75.660156 " fill-opacity="1" fill-rule="evenodd"/><path fill="#000000" d="M 183.519531 75.660156 L 184.761719 75.660156 C 257.988281 76.617188 257.308594 117.089844 257.308594 176.613281 C 257.308594 181.246094 264.847656 180.042969 264.152344 193.730469 C 262.101562 211.121094 255.667969 206.875 254.824219 211.570312 C 246.5 257.53125 218.289062 291.269531 184.761719 291.269531 C 150.8125 291.269531 122.316406 256.636719 114.40625 209.855469 C 113.660156 205.496094 109.125 209.132812 108.628906 193.0625 C 107.386719 178.328125 112.207031 181.023438 112.207031 176.613281 C 112.207031 117.5625 132.082031 75.660156 183.507812 75.660156 M 183.507812 66.964844 C 155.894531 66.964844 134.9375 77.847656 121.25 99.261719 C 109.671875 117.398438 103.710938 142.863281 103.523438 175.035156 C 100.679688 178.761719 99.152344 183.570312 99.945312 193.558594 C 100.320312 204.636719 102.566406 209.421875 106.15625 212.886719 C 115.363281 264.25 147.546875 299.976562 184.8125 299.976562 C 203.445312 299.976562 221.554688 290.871094 235.867188 274.335938 C 248.882812 259.304688 258.472656 238.425781 263.007812 215.34375 C 269.679688 210.675781 271.789062 203.707031 272.847656 194.761719 L 272.847656 194.179688 C 273.378906 183.457031 269.953125 178.304688 266.003906 174.515625 C 266.003906 144.703125 266.003906 118.851562 255.953125 99.683594 C 244.574219 77.859375 221.992188 67.464844 184.875 66.980469 Z M 183.507812 66.964844 " fill-opacity="1" fill-rule="nonzero"/><path fill="#474747" d="M 158.515625 211.78125 C 158.515625 211.78125 162.367188 215.632812 170.066406 215.332031 C 177.769531 215.035156 181.308594 210.601562 181.308594 210.601562 C 181.308594 210.601562 178.054688 218.054688 170.949219 218.585938 C 163.84375 219.121094 158.515625 211.78125 158.515625 211.78125 Z M 158.515625 211.78125 " fill-opacity="1" fill-rule="evenodd"/><path fill="#ffffff" d="M 168.117188 174.191406 C 168.117188 175.25 168.078125 176.308594 167.996094 177.359375 C 167.914062 178.414062 167.792969 179.460938 167.632812 180.5 C 167.46875 181.539062 167.269531 182.566406 167.027344 183.578125 C 166.789062 184.589844 166.507812 185.585938 166.191406 186.566406 C 165.875 187.542969 165.519531 188.5 165.128906 189.433594 C 164.738281 190.367188 164.3125 191.273438 163.851562 192.15625 C 163.394531 193.035156 162.898438 193.886719 162.375 194.703125 C 161.847656 195.523438 161.292969 196.308594 160.707031 197.054688 C 160.121094 197.804688 159.507812 198.515625 158.867188 199.1875 C 158.226562 199.859375 157.5625 200.488281 156.871094 201.078125 C 156.183594 201.664062 155.472656 202.207031 154.742188 202.707031 C 154.011719 203.207031 153.261719 203.660156 152.496094 204.066406 C 151.730469 204.46875 150.953125 204.828125 150.160156 205.132812 C 149.367188 205.441406 148.5625 205.699219 147.75 205.90625 C 146.9375 206.113281 146.121094 206.265625 145.292969 206.371094 C 144.46875 206.472656 143.644531 206.527344 142.8125 206.527344 C 141.984375 206.527344 141.160156 206.472656 140.335938 206.371094 C 139.507812 206.265625 138.691406 206.113281 137.878906 205.90625 C 137.066406 205.699219 136.261719 205.441406 135.46875 205.132812 C 134.675781 204.828125 133.898438 204.46875 133.132812 204.066406 C 132.367188 203.660156 131.617188 203.207031 130.886719 202.707031 C 130.15625 202.207031 129.445312 201.664062 128.757812 201.078125 C 128.066406 200.488281 127.402344 199.859375 126.761719 199.1875 C 126.121094 198.515625 125.507812 197.804688 124.921875 197.054688 C 124.335938 196.308594 123.78125 195.523438 123.253906 194.703125 C 122.730469 193.886719 122.234375 193.035156 121.773438 192.15625 C 121.316406 191.273438 120.890625 190.367188 120.5 189.433594 C 120.109375 188.5 119.753906 187.542969 119.4375 186.566406 C 119.121094 185.585938 118.839844 184.589844 118.601562 183.578125 C 118.359375 182.566406 118.160156 181.539062 117.996094 180.5 C 117.835938 179.460938 117.714844 178.414062 117.632812 177.359375 C 117.550781 176.308594 117.511719 175.25 117.511719 174.191406 C 117.511719 173.132812 117.550781 172.078125 117.632812 171.023438 C 117.714844 169.96875 117.835938 168.921875 117.996094 167.882812 C 118.160156 166.84375 118.359375 165.820312 118.601562 164.804688 C 118.839844 163.792969 119.121094 162.796875 119.4375 161.816406 C 119.753906 160.839844 120.109375 159.882812 120.5 158.949219 C 120.890625 158.015625 121.316406 157.109375 121.773438 156.226562 C 122.234375 155.347656 122.730469 154.496094 123.253906 153.679688 C 123.78125 152.859375 124.335938 152.078125 124.921875 151.328125 C 125.507812 150.578125 126.121094 149.867188 126.761719 149.199219 C 127.402344 148.527344 128.066406 147.894531 128.757812 147.308594 C 129.445312 146.71875 130.15625 146.175781 130.886719 145.675781 C 131.617188 145.175781 132.367188 144.722656 133.132812 144.320312 C 133.898438 143.914062 134.675781 143.558594 135.46875 143.25 C 136.261719 142.941406 137.066406 142.6875 137.878906 142.480469 C 138.691406 142.273438 139.507812 142.117188 140.335938 142.011719 C 141.160156 141.910156 141.984375 141.859375 142.8125 141.859375 C 143.644531 141.859375 144.46875 141.910156 145.292969 142.011719 C 146.121094 142.117188 146.9375 142.273438 147.75 142.480469 C 148.5625 142.6875 149.367188 142.941406 150.160156 143.25 C 150.953125 143.558594 151.730469 143.914062 152.496094 144.320312 C 153.261719 144.722656 154.011719 145.175781 154.742188 145.675781 C 155.472656 146.175781 156.183594 146.71875 156.871094 147.308594 C 157.5625 147.894531 158.226562 148.527344 158.867188 149.199219 C 159.507812 149.867188 160.121094 150.578125 160.707031 151.328125 C 161.292969 152.078125 161.847656 152.859375 162.375 153.679688 C 162.898438 154.496094 163.394531 155.347656 163.851562 156.226562 C 164.3125 157.109375 164.738281 158.015625 165.128906 158.949219 C 165.519531 159.882812 165.875 160.839844 166.191406 161.816406 C 166.507812 162.796875 166.789062 163.792969 167.027344 164.804688 C 167.269531 165.820312 167.46875 166.84375 167.632812 167.882812 C 167.792969 168.921875 167.914062 169.96875 167.996094 171.023438 C 168.078125 172.078125 168.117188 173.132812 168.117188 174.191406 Z M 168.117188 174.191406 " fill-opacity="1" fill-rule="nonzero"/><path fill="#ffffff" d="M 222.3125 174.191406 C 222.3125 175.25 222.273438 176.308594 222.191406 177.359375 C 222.109375 178.414062 221.988281 179.460938 221.828125 180.5 C 221.667969 181.539062 221.464844 182.566406 221.226562 183.578125 C 220.984375 184.589844 220.707031 185.585938 220.386719 186.566406 C 220.070312 187.542969 219.71875 188.5 219.328125 189.433594 C 218.9375 190.367188 218.511719 191.273438 218.050781 192.15625 C 217.589844 193.035156 217.097656 193.886719 216.570312 194.703125 C 216.046875 195.523438 215.488281 196.308594 214.902344 197.054688 C 214.316406 197.804688 213.703125 198.515625 213.0625 199.1875 C 212.421875 199.859375 211.757812 200.488281 211.070312 201.078125 C 210.378906 201.664062 209.667969 202.207031 208.9375 202.707031 C 208.207031 203.207031 207.460938 203.660156 206.695312 204.066406 C 205.929688 204.46875 205.148438 204.828125 204.355469 205.132812 C 203.5625 205.441406 202.761719 205.699219 201.949219 205.90625 C 201.132812 206.113281 200.316406 206.265625 199.492188 206.371094 C 198.667969 206.472656 197.839844 206.527344 197.011719 206.527344 C 196.183594 206.527344 195.355469 206.472656 194.53125 206.371094 C 193.707031 206.265625 192.886719 206.113281 192.074219 205.90625 C 191.261719 205.699219 190.457031 205.441406 189.664062 205.132812 C 188.871094 204.828125 188.09375 204.46875 187.328125 204.066406 C 186.5625 203.660156 185.8125 203.207031 185.082031 202.707031 C 184.351562 202.207031 183.640625 201.664062 182.953125 201.078125 C 182.265625 200.488281 181.597656 199.859375 180.957031 199.1875 C 180.316406 198.515625 179.703125 197.804688 179.117188 197.054688 C 178.53125 196.308594 177.976562 195.523438 177.449219 194.703125 C 176.925781 193.886719 176.433594 193.035156 175.972656 192.15625 C 175.511719 191.273438 175.085938 190.367188 174.695312 189.433594 C 174.304688 188.5 173.949219 187.542969 173.632812 186.566406 C 173.316406 185.585938 173.039062 184.589844 172.796875 183.578125 C 172.554688 182.566406 172.355469 181.539062 172.195312 180.5 C 172.03125 179.460938 171.910156 178.414062 171.828125 177.359375 C 171.75 176.308594 171.707031 175.25 171.707031 174.191406 C 171.707031 173.132812 171.75 172.078125 171.828125 171.023438 C 171.910156 169.96875 172.03125 168.921875 172.195312 167.882812 C 172.355469 166.84375 172.554688 165.820312 172.796875 164.804688 C 173.039062 163.792969 173.316406 162.796875 173.632812 161.816406 C 173.949219 160.839844 174.304688 159.882812 174.695312 158.949219 C 175.085938 158.015625 175.511719 157.109375 175.972656 156.226562 C 176.433594 155.347656 176.925781 154.496094 177.449219 153.679688 C 177.976562 152.859375 178.53125 152.078125 179.117188 151.328125 C 179.703125 150.578125 180.316406 149.867188 180.957031 149.199219 C 181.597656 148.527344 182.265625 147.894531 182.953125 147.308594 C 183.640625 146.71875 184.351562 146.175781 185.082031 145.675781 C 185.8125 145.175781 186.5625 144.722656 187.328125 144.320312 C 188.09375 143.914062 188.871094 143.558594 189.664062 143.25 C 190.457031 142.941406 191.261719 142.6875 192.074219 142.480469 C 192.886719 142.273438 193.707031 142.117188 194.53125 142.011719 C 195.355469 141.910156 196.183594 141.859375 197.011719 141.859375 C 197.839844 141.859375 198.667969 141.910156 199.492188 142.011719 C 200.316406 142.117188 201.132812 142.273438 201.949219 142.480469 C 202.761719 142.6875 203.5625 142.941406 204.355469 143.25 C 205.148438 143.558594 205.929688 143.914062 206.695312 144.320312 C 207.460938 144.722656 208.207031 145.175781 208.9375 145.675781 C 209.667969 146.175781 210.378906 146.71875 211.070312 147.308594 C 211.757812 147.894531 212.421875 148.527344 213.0625 149.199219 C 213.703125 149.867188 214.316406 150.578125 214.902344 151.328125 C 215.488281 152.078125 216.046875 152.859375 216.570312 153.679688 C 217.097656 154.496094 217.589844 155.347656 218.050781 156.226562 C 218.511719 157.109375 218.9375 158.015625 219.328125 158.949219 C 219.71875 159.882812 220.070312 160.839844 220.386719 161.816406 C 220.707031 162.796875 220.984375 163.792969 221.226562 164.804688 C 221.464844 165.820312 221.667969 166.84375 221.828125 167.882812 C 221.988281 168.921875 222.109375 169.96875 222.191406 171.023438 C 222.273438 172.078125 222.3125 173.132812 222.3125 174.191406 Z M 222.3125 174.191406 " fill-opacity="1" fill-rule="nonzero"/><path fill="#000000" d="M 144.765625 179.609375 C 144.765625 180.226562 144.703125 180.839844 144.582031 181.449219 C 144.460938 182.058594 144.28125 182.648438 144.046875 183.21875 C 143.808594 183.792969 143.519531 184.335938 143.171875 184.851562 C 142.828125 185.367188 142.4375 185.84375 142 186.285156 C 141.5625 186.722656 141.085938 187.113281 140.570312 187.457031 C 140.054688 187.800781 139.507812 188.09375 138.9375 188.328125 C 138.363281 188.566406 137.773438 188.746094 137.164062 188.867188 C 136.558594 188.988281 135.945312 189.046875 135.324219 189.046875 C 134.703125 189.046875 134.089844 188.988281 133.480469 188.867188 C 132.875 188.746094 132.285156 188.566406 131.710938 188.328125 C 131.136719 188.09375 130.59375 187.800781 130.078125 187.457031 C 129.5625 187.113281 129.085938 186.722656 128.648438 186.285156 C 128.210938 185.84375 127.820312 185.367188 127.472656 184.851562 C 127.128906 184.335938 126.839844 183.792969 126.601562 183.21875 C 126.363281 182.648438 126.1875 182.058594 126.066406 181.449219 C 125.945312 180.839844 125.882812 180.226562 125.882812 179.609375 C 125.882812 178.988281 125.945312 178.375 126.066406 177.765625 C 126.1875 177.15625 126.363281 176.566406 126.601562 175.996094 C 126.839844 175.421875 127.128906 174.878906 127.472656 174.363281 C 127.820312 173.847656 128.210938 173.371094 128.648438 172.933594 C 129.085938 172.492188 129.5625 172.101562 130.078125 171.757812 C 130.59375 171.414062 131.136719 171.125 131.710938 170.886719 C 132.285156 170.648438 132.875 170.46875 133.480469 170.347656 C 134.089844 170.226562 134.703125 170.167969 135.324219 170.167969 C 135.945312 170.167969 136.558594 170.226562 137.164062 170.347656 C 137.773438 170.46875 138.363281 170.648438 138.9375 170.886719 C 139.507812 171.125 140.054688 171.414062 140.570312 171.757812 C 141.085938 172.101562 141.5625 172.492188 142 172.933594 C 142.4375 173.371094 142.828125 173.847656 143.171875 174.363281 C 143.519531 174.878906 143.808594 175.421875 144.046875 175.996094 C 144.28125 176.566406 144.460938 177.15625 144.582031 177.765625 C 144.703125 178.375 144.765625 178.988281 144.765625 179.609375 Z M 144.765625 179.609375 " fill-opacity="1" fill-rule="nonzero"/><path fill="#000000" d="M 197.496094 179.609375 C 197.496094 180.226562 197.433594 180.839844 197.3125 181.449219 C 197.191406 182.058594 197.015625 182.648438 196.777344 183.21875 C 196.539062 183.792969 196.25 184.335938 195.90625 184.851562 C 195.558594 185.367188 195.167969 185.84375 194.730469 186.285156 C 194.292969 186.722656 193.816406 187.113281 193.300781 187.457031 C 192.785156 187.800781 192.238281 188.09375 191.667969 188.328125 C 191.09375 188.566406 190.503906 188.746094 189.898438 188.867188 C 189.289062 188.988281 188.675781 189.046875 188.054688 189.046875 C 187.433594 189.046875 186.820312 188.988281 186.214844 188.867188 C 185.605469 188.746094 185.015625 188.566406 184.441406 188.328125 C 183.871094 188.09375 183.324219 187.800781 182.808594 187.457031 C 182.292969 187.113281 181.816406 186.722656 181.378906 186.285156 C 180.941406 185.84375 180.550781 185.367188 180.207031 184.851562 C 179.859375 184.335938 179.570312 183.792969 179.332031 183.21875 C 179.09375 182.648438 178.917969 182.058594 178.796875 181.449219 C 178.675781 180.839844 178.613281 180.226562 178.613281 179.609375 C 178.613281 178.988281 178.675781 178.375 178.796875 177.765625 C 178.917969 177.15625 179.09375 176.566406 179.332031 175.996094 C 179.570312 175.421875 179.859375 174.878906 180.207031 174.363281 C 180.550781 173.847656 180.941406 173.371094 181.378906 172.933594 C 181.816406 172.492188 182.292969 172.101562 182.808594 171.757812 C 183.324219 171.414062 183.871094 171.125 184.441406 170.886719 C 185.015625 170.648438 185.605469 170.46875 186.214844 170.347656 C 186.820312 170.226562 187.433594 170.167969 188.054688 170.167969 C 188.675781 170.167969 189.289062 170.226562 189.898438 170.347656 C 190.503906 170.46875 191.09375 170.648438 191.667969 170.886719 C 192.238281 171.125 192.785156 171.414062 193.300781 171.757812 C 193.816406 172.101562 194.292969 172.492188 194.730469 172.933594 C 195.167969 173.371094 195.558594 173.847656 195.90625 174.363281 C 196.25 174.878906 196.539062 175.421875 196.777344 175.996094 C 197.015625 176.566406 197.191406 177.15625 197.3125 177.765625 C 197.433594 178.375 197.496094 178.988281 197.496094 179.609375 Z M 197.496094 179.609375 " fill-opacity="1" fill-rule="nonzero"/><path fill="#000000" d="M 178.675781 259.714844 C 163.472656 259.714844 152.230469 255.777344 152.230469 243.171875 C 152.230469 239.371094 155.957031 236.289062 160.503906 236.289062 L 196.003906 236.289062 C 199.246094 236.289062 201.867188 238.476562 201.867188 241.160156 L 201.867188 247.65625 C 201.867188 257.792969 190.886719 259.714844 178.675781 259.714844 Z M 178.675781 259.714844 " fill-opacity="1" fill-rule="evenodd"/><path fill="#ffffff" d="M 196.003906 236.289062 L 160.503906 236.289062 C 155.933594 236.289062 152.230469 239.371094 152.230469 243.171875 L 152.230469 243.355469 C 159.039062 245.417969 168.054688 246.238281 178.316406 246.238281 C 187.183594 246.238281 195.605469 245.765625 201.917969 244.113281 L 201.917969 241.160156 C 201.867188 238.5 199.246094 236.289062 196.003906 236.289062 Z M 196.003906 236.289062 " fill-opacity="1" fill-rule="nonzero"/></svg>